<?xml version="1.0" encoding="utf-8"?>
<!-- Generator: Adobe Illustrator 21.1.0, SVG Export Plug-In . SVG Version: 6.00 Build 0)  -->
<svg version="1.1" id="Layer_1" xmlns="http://www.w3.org/2000/svg" xmlns:xlink="http://www.w3.org/1999/xlink" x="0px" y="0px"
	 viewBox="0 0 68.3 68.3" style="enable-background:new 0 0 68.3 68.3;" xml:space="preserve">
<style type="text/css">
	.st0{fill:#043275;}
	.st1{enable-background:new    ;}
	.st2{fill:#FFFFFF;}
</style>
<g transform="translate(-233.5 -1744.344)">
	<g>
		<path class="st0" d="M267.7,1812.6c-6.8,0-13.5-2-19.1-5.8c-5.5-3.7-9.8-8.9-12.4-15c-4.5-10.6-3.3-22.8,3.1-32.4
			c3.7-5.5,8.9-9.8,15-12.4c10.6-4.5,22.8-3.3,32.4,3.1c5.5,3.7,9.8,8.9,12.4,15c4.5,10.6,3.3,22.8-3.1,32.4
			c-3.7,5.5-8.9,9.8-15,12.4C276.7,1811.7,272.2,1812.7,267.7,1812.6z M267.7,1748.3c-6,0-11.9,1.8-16.9,5.2
			c-4.9,3.3-8.7,7.9-10.9,13.3c-4,9.4-2.9,20.2,2.8,28.6c3.3,4.9,7.9,8.7,13.3,10.9c9.4,4,20.2,2.9,28.6-2.8
			c4.9-3.3,8.7-7.9,10.9-13.3c4-9.4,2.9-20.2-2.8-28.6c-3.3-4.9-7.9-8.7-13.3-10.9C275.7,1749.1,271.7,1748.3,267.7,1748.3z
			 M267.7,1807.2c-5.7,0-11.3-1.7-16-4.9c-4.6-3.1-8.2-7.5-10.4-12.6c-3.8-8.9-2.8-19.2,2.6-27.2c3.1-4.6,7.5-8.2,12.6-10.4
			c8.9-3.8,19.2-2.8,27.2,2.6c4.6,3.1,8.2,7.5,10.4,12.6c3.8,8.9,2.8,19.2-2.6,27.2c-3.1,4.6-7.5,8.2-12.6,10.4
			C275.3,1806.4,271.5,1807.2,267.7,1807.2L267.7,1807.2z"/>
	</g>
	<g class="st1">
		<path class="st2" d="M267.1,1789.3v-14.2h-5.2v-1.9c0.7,0,1.3-0.1,2-0.2c0.6-0.1,1.2-0.3,1.7-0.6c0.5-0.3,0.9-0.7,1.3-1.1
			s0.6-1.1,0.7-1.8h1.8v19.9H267.1z"/>
	</g>
</g>
</svg>
