<svg xmlns="http://www.w3.org/2000/svg" viewBox="3252 -1387 109 109"><defs><style>.a{fill:#043275;}.b{fill:#fff;fill-rule:evenodd;}.c,.e{fill:none;}.c{stroke:#043275;}.d{stroke:none;}</style></defs><g transform="translate(2482 -1725)"><circle class="a" cx="51.373" cy="51.373" r="51.373" transform="translate(773.127 341.127)"/><path class="b" d="M428.975,134.973a10.28,10.28,0,0,0-1.5-5.477,10.57,10.57,0,0,0-4.062-3.834,21.283,21.283,0,0,0-5.128-1.789,15.366,15.366,0,0,0,5.018-2.556,10.872,10.872,0,0,0,2.914-3.56,9.479,9.479,0,0,0-.892-9.943,12.051,12.051,0,0,0-5.468-3.966,18.273,18.273,0,0,0-3.2-.846V94.992h-8.074v7.469h-5.187V94.992h-8.074v7.469H383v6.278h1.883a6.682,6.682,0,0,1,2.547.327,1.944,1.944,0,0,1,.94.876,7.2,7.2,0,0,1,.276,2.571v25.314a7.09,7.09,0,0,1-.276,2.556,1.8,1.8,0,0,1-.94.876,6.917,6.917,0,0,1-2.547.312H383v6.278h12.314v7.466h8.074v-7.466h4.591c.213,0,.407,0,.6,0v7.469h8.074V147.2a19.5,19.5,0,0,0,3.557-.955,14.143,14.143,0,0,0,6.471-4.627A10.766,10.766,0,0,0,428.975,134.973Zm-16.329-6.732a18.938,18.938,0,0,0-6.032-.718h-6.172v9.826a11.991,11.991,0,0,0,.17,2.44,1.073,1.073,0,0,0,.564.631,7.29,7.29,0,0,0,2.128.184h3.474a19.3,19.3,0,0,0,5.022-.549,6.431,6.431,0,0,0,3.391-2.229,6.224,6.224,0,0,0,1.4-4.067,5.829,5.829,0,0,0-.987-3.421,6.025,6.025,0,0,0-2.957-2.1Zm-.916-8.041a5.91,5.91,0,0,0,2.957-1.958,4.932,4.932,0,0,0,.987-3.045,5.006,5.006,0,0,0-.936-3.056,5.111,5.111,0,0,0-2.716-1.8,25.084,25.084,0,0,0-6.352-.541h-5.226v11.063h5.226a20.768,20.768,0,0,0,6.06-.657Z" transform="translate(418.268 267.445)"/><g class="c" transform="translate(770 338)"><circle class="d" cx="54.5" cy="54.5" r="54.5"/><circle class="e" cx="54.5" cy="54.5" r="54"/></g></g></svg>