<svg xmlns="http://www.w3.org/2000/svg" viewBox="-1631.236 4489.395 24.387 27.643"><defs><style>.a{fill:#043275;fill-rule:evenodd;}</style></defs><path class="a" d="M702.677,175h18.828a.678.678,0,0,1,.678.678v26.288a.678.678,0,0,1-.678.678H702.677a.678.678,0,0,1-.677-.678V175.678A.678.678,0,0,1,702.677,175Zm.588.984h17.653a.678.678,0,0,1,.678.678v24.525a.678.678,0,0,1-.678.678H703.265a.678.678,0,0,1-.678-.678V176.662A.678.678,0,0,1,703.265,175.984Zm2.457,6.274v-.784h12.938v.784Zm0,3.725V185.2h12.938v.784Zm0,3.725v-.784h12.938v.784Zm0,3.725v-.784h12.938v.784Zm19.334-9.812.536.241a.98.98,0,0,1,.491,1.3l-5.474,12.157a.98.98,0,0,1-1.3.491l-.536-.242a.981.981,0,0,1-.491-1.3l5.474-12.156A.98.98,0,0,1,725.056,183.622Zm-1.278.929,1.966.886-.242.536-1.966-.886Zm1.5-1.9,1.107.518-.4.894-1.107-.518Zm-6.816,16.283-.259-2.482,2.314,1.066Zm-7.521-.488s2.793-2.661,3.117-2.981c.613-.17.84-.016,0,1.22s-1.594,2.735-.948,2.168c.845-.9,1.035-1.4,1.626-1.355.533.043.217.592.678.813.8.075,1.47-.018,2.168,0s.677.542.677.542-1.7.289-2.168.407a3.683,3.683,0,0,1-1.626-.813c-.569.8-.765,1.549-1.355,1.626s-.764-1.143-.813-1.491-.836,1.039-1.22.813S710.943,198.442,710.943,198.442Z" transform="translate(-2333.236 4314.395)"/></svg>