<svg xmlns="http://www.w3.org/2000/svg" viewBox="-1634.271 4552.96 29.474 21.495"><defs><style>.a{fill:#043275;fill-rule:evenodd;}</style></defs><path class="a" d="M786.6,371.35h19.616a4.929,4.929,0,0,1,4.929,4.929v11.636a4.929,4.929,0,0,1-4.929,4.929H786.6a4.929,4.929,0,0,1-4.929-4.929V376.279a4.929,4.929,0,0,1,4.929-4.929Zm.571.761h18.475a4.929,4.929,0,0,1,4.929,4.929v10.114a4.929,4.929,0,0,1-4.929,4.929H787.172a4.929,4.929,0,0,1-4.929-4.929V377.04a4.929,4.929,0,0,1,4.929-4.929Zm9.114,14.469-.7-.436,6.6-8.326.7.436Zm12.077,0,.7-.436-6.6-8.326-.7.436Zm-23.142,2.46-.7-.436,6.6-8.325.7.436Zm12.077,0,.7-.436-6.6-8.325-.7.436Zm-7.824-15.407a2.854,2.854,0,1,1-2.852,2.853,2.853,2.853,0,0,1,2.852-2.853Zm0,.571a2.283,2.283,0,1,1-2.282,2.282,2.283,2.283,0,0,1,2.282-2.282Zm-6.851,16.359V389.8h19.966v.761Z" transform="translate(-2415.943 4181.61)"/></svg>