<?xml version="1.0" encoding="utf-8"?>
<!-- Generator: Adobe Illustrator 21.1.0, SVG Export Plug-In . SVG Version: 6.00 Build 0)  -->
<svg version="1.1" id="Layer_1" xmlns="http://www.w3.org/2000/svg" xmlns:xlink="http://www.w3.org/1999/xlink" x="0px" y="0px"
	 viewBox="0 0 177.4 39.1" style="enable-background:new 0 0 177.4 39.1;" xml:space="preserve">
<style type="text/css">
	.st0{fill:#B1DBFF;}
	.st1{fill:#3C92FF;}
	.st2{enable-background:new    ;}
	.st3{fill:#3B92FF;}
</style>
<g transform="translate(3296 -7733)">
	<g>
		<path class="st0" d="M-3275,7759.2c-8.7,3.1-17.8-0.3-20.3-7.5c-2.6-7.2,2.4-15.6,11.1-18.7L-3275,7759.2z M-3283.2,7735.9
			c-6.7,2.4-10.6,8.9-8.6,14.5c2,5.6,9.1,8.2,15.8,5.8L-3283.2,7735.9z"/>
	</g>
	<g>
		<path class="st1" d="M-3281.2,7772.1c8.8-2.7,14.1-10.8,11.9-18.2s-11.2-11.1-20-8.4L-3281.2,7772.1z M-3288.4,7748.5
			c6.8-2.1,13.8,0.8,15.5,6.5c1.7,5.7-2.4,12-9.3,14.1L-3288.4,7748.5z"/>
	</g>
	<g class="st2">
		<path class="st0" d="M-3248.7,7759c-0.9,0.5-2.8,0.9-5.2,0.9c-5.5,0-9.7-3.5-9.7-9.9c0-6.1,4.1-10.3,10.2-10.3
			c2.4,0,4,0.5,4.6,0.9l-0.6,2.1c-1-0.5-2.3-0.8-3.9-0.8c-4.6,0-7.6,2.9-7.6,8.1c0,4.8,2.8,7.9,7.5,7.9c1.5,0,3.1-0.3,4.1-0.8
			L-3248.7,7759z"/>
		<path class="st0" d="M-3245.7,7739h2.6v8.8h0.1c0.4-0.7,1-1.4,1.8-1.8c0.8-0.4,1.7-0.7,2.6-0.7c1.9,0,4.9,1.2,4.9,6v8.4h-2.6v-8.1
			c0-2.3-0.8-4.2-3.2-4.2c-1.7,0-3,1.2-3.4,2.6c-0.1,0.3-0.2,0.7-0.2,1.2v8.5h-2.6V7739z"/>
		<path class="st0" d="M-3221.8,7759.6l-0.2-1.8h-0.1c-0.8,1.1-2.3,2.1-4.3,2.1c-2.8,0-4.3-2-4.3-4c0-3.4,3-5.2,8.4-5.2v-0.3
			c0-1.2-0.3-3.2-3.2-3.2c-1.3,0-2.7,0.4-3.7,1l-0.6-1.7c1.2-0.8,2.8-1.2,4.6-1.2c4.3,0,5.3,2.9,5.3,5.7v5.2c0,1.2,0.1,2.4,0.2,3.4
			H-3221.8z M-3222.2,7752.4c-2.8-0.1-5.9,0.4-5.9,3.2c0,1.7,1.1,2.4,2.4,2.4c1.8,0,3-1.2,3.4-2.3c0.1-0.3,0.1-0.6,0.1-0.8V7752.4z"
			/>
		<path class="st0" d="M-3212.7,7741.6c0,0.9-0.6,1.6-1.6,1.6c-0.9,0-1.5-0.7-1.5-1.6c0-0.9,0.7-1.6,1.6-1.6
			C-3213.4,7740-3212.7,7740.7-3212.7,7741.6z M-3215.6,7759.6v-14h2.6v14H-3215.6z"/>
		<path class="st0" d="M-3208.8,7749.4c0-1.5,0-2.6-0.1-3.8h2.3l0.1,2.3h0.1c0.7-1.3,2.3-2.6,4.6-2.6c1.9,0,5,1.2,5,6v8.4h-2.6v-8.1
			c0-2.3-0.8-4.1-3.2-4.1c-1.7,0-3,1.2-3.4,2.6c-0.1,0.3-0.2,0.8-0.2,1.2v8.4h-2.6V7749.4z"/>
	</g>
	<g class="st2">
		<path class="st3" d="M-3193.1,7757c0.8,0.5,2.1,1,3.4,1c1.9,0,2.7-0.9,2.7-2.1c0-1.2-0.7-1.9-2.6-2.6c-2.5-0.9-3.7-2.3-3.7-4
			c0-2.3,1.8-4.1,4.8-4.1c1.4,0,2.7,0.4,3.5,0.9l-0.6,1.9c-0.6-0.3-1.6-0.8-2.9-0.8c-1.5,0-2.3,0.9-2.3,1.9c0,1.2,0.8,1.7,2.7,2.4
			c2.4,0.9,3.7,2.1,3.7,4.2c0,2.5-1.9,4.2-5.3,4.2c-1.5,0-3-0.4-3.9-1L-3193.1,7757z"/>
		<path class="st3" d="M-3178.1,7741.5v4h3.7v1.9h-3.7v7.6c0,1.7,0.5,2.7,1.9,2.7c0.7,0,1.2-0.1,1.5-0.2l0.1,1.9
			c-0.5,0.2-1.3,0.3-2.3,0.3c-1.2,0-2.1-0.4-2.8-1.1c-0.7-0.8-1-2-1-3.7v-7.7h-2.2v-1.9h2.2v-3.4L-3178.1,7741.5z"/>
		<path class="st3" d="M-3163.8,7759.6l-0.2-1.8h-0.1c-0.8,1.1-2.3,2.1-4.3,2.1c-2.8,0-4.3-2-4.3-4c0-3.4,3-5.2,8.4-5.2v-0.3
			c0-1.2-0.3-3.2-3.2-3.2c-1.3,0-2.7,0.4-3.7,1l-0.6-1.7c1.2-0.8,2.8-1.2,4.6-1.2c4.3,0,5.3,2.9,5.3,5.7v5.2c0,1.2,0.1,2.4,0.2,3.4
			H-3163.8z M-3164.2,7752.4c-2.8-0.1-5.9,0.4-5.9,3.2c0,1.7,1.1,2.4,2.4,2.4c1.8,0,3-1.2,3.4-2.3c0.1-0.3,0.1-0.6,0.1-0.8V7752.4z"
			/>
		<path class="st3" d="M-3157.6,7749.4c0-1.5,0-2.6-0.1-3.8h2.2l0.1,2.3h0.1c0.8-1.3,2.1-2.6,4.4-2.6c1.9,0,3.4,1.2,4,2.8h0.1
			c0.4-0.8,1-1.4,1.6-1.8c0.8-0.6,1.8-1,3.1-1c1.9,0,4.6,1.2,4.6,6.1v8.3h-2.5v-7.9c0-2.7-1-4.3-3-4.3c-1.5,0-2.6,1.1-3,2.3
			c-0.1,0.3-0.2,0.8-0.2,1.3v8.7h-2.5v-8.4c0-2.2-1-3.9-2.9-3.9c-1.6,0-2.8,1.3-3.2,2.6c-0.1,0.4-0.2,0.8-0.2,1.2v8.5h-2.5V7749.4z"
			/>
		<path class="st3" d="M-3133.5,7750.2c0-1.8-0.1-3.2-0.1-4.6h2.3l0.1,2.4h0.1c1-1.7,2.7-2.7,5-2.7c3.4,0,5.9,2.9,5.9,7.1
			c0,5-3.1,7.5-6.4,7.5c-1.9,0-3.5-0.8-4.3-2.2h-0.1v7.6h-2.5V7750.2z M-3130.9,7753.9c0,0.4,0.1,0.7,0.1,1c0.5,1.8,2,3,3.8,3
			c2.7,0,4.3-2.2,4.3-5.4c0-2.8-1.5-5.2-4.2-5.2c-1.7,0-3.4,1.2-3.9,3.2c-0.1,0.3-0.2,0.7-0.2,1V7753.9z"/>
	</g>
</g>
</svg>
