<?xml version="1.0" encoding="utf-8"?>
<!-- Generator: Adobe Illustrator 21.1.0, SVG Export Plug-In . SVG Version: 6.00 Build 0)  -->
<svg version="1.1" id="Layer_1" xmlns="http://www.w3.org/2000/svg" xmlns:xlink="http://www.w3.org/1999/xlink" x="0px" y="0px"
	 viewBox="0 0 155 36.1" style="enable-background:new 0 0 155 36.1;" xml:space="preserve">
<style type="text/css">
	.st0{fill:#FFFFFF;}
	.st1{enable-background:new    ;}
</style>
<g transform="translate(3858.988 -4823.514)">
	<g>
		<path class="st0" d="M-3840.5,4845c-6.2,2.2-12.7-0.2-14.6-5.4c-1.8-5.2,1.7-11.2,7.9-13.4l-1-2.7c-8,2.9-12.6,10.6-10.2,17.3
			c2.4,6.7,10.8,9.8,18.8,6.9L-3840.5,4845z"/>
	</g>
	<g>
		<path class="st0" d="M-3834.3,4842.9c-2.1-6.8-10.3-10.3-18.5-7.8l0.8,2.7c6.3-1.9,12.7,0.8,14.3,6c1.6,5.2-2.2,11.1-8.5,13
			l0.8,2.7C-3837.2,4857.2-3832.3,4849.6-3834.3,4842.9z"/>
	</g>
	<g class="st1">
		<path class="st0" d="M-3816.3,4846.2c-0.8,0.4-2.4,0.8-4.4,0.8c-4.7,0-8.3-3-8.3-8.5c0-5.3,3.6-8.8,8.8-8.8c2.1,0,3.4,0.5,4,0.8
			l-0.5,1.8c-0.8-0.4-2-0.7-3.4-0.7c-3.9,0-6.6,2.5-6.6,6.9c0,4.1,2.4,6.8,6.5,6.8c1.3,0,2.7-0.3,3.5-0.7L-3816.3,4846.2z"/>
		<path class="st0" d="M-3813.6,4829h2.2v7.5h0.1c0.3-0.6,0.9-1.2,1.6-1.5c0.6-0.4,1.4-0.6,2.2-0.6c1.6,0,4.2,1,4.2,5.2v7.2h-2.2
			v-6.9c0-1.9-0.7-3.6-2.8-3.6c-1.4,0-2.5,1-2.9,2.2c-0.1,0.3-0.1,0.6-0.1,1v7.3h-2.2V4829z"/>
		<path class="st0" d="M-3793.1,4846.8l-0.2-1.5h-0.1c-0.7,0.9-2,1.8-3.7,1.8c-2.4,0-3.7-1.7-3.7-3.5c0-2.9,2.6-4.5,7.3-4.5v-0.2
			c0-1-0.3-2.8-2.7-2.8c-1.1,0-2.3,0.3-3.1,0.9l-0.5-1.4c1-0.7,2.4-1.1,4-1.1c3.7,0,4.6,2.5,4.6,4.9v4.5c0,1,0.1,2.1,0.2,2.9
			H-3793.1z M-3793.4,4840.6c-2.4,0-5.1,0.4-5.1,2.7c0,1.4,0.9,2.1,2.1,2.1c1.6,0,2.6-1,2.9-2c0.1-0.2,0.1-0.5,0.1-0.7V4840.6z"/>
		<path class="st0" d="M-3785.3,4831.3c0,0.8-0.5,1.3-1.4,1.3c-0.8,0-1.3-0.6-1.3-1.3c0-0.8,0.6-1.4,1.4-1.4
			C-3785.8,4829.9-3785.3,4830.5-3785.3,4831.3z M-3787.7,4846.8v-12.1h2.2v12.1H-3787.7z"/>
		<path class="st0" d="M-3781.9,4838c0-1.2,0-2.3-0.1-3.3h1.9l0.1,2h0.1c0.6-1.1,2-2.3,4-2.3c1.7,0,4.3,1,4.3,5.1v7.2h-2.2v-7
			c0-1.9-0.7-3.6-2.8-3.6c-1.4,0-2.6,1-2.9,2.2c-0.1,0.3-0.1,0.6-0.1,1v7.3h-2.2V4838z"/>
		<path class="st0" d="M-3768.3,4844.5c0.6,0.4,1.8,0.9,2.9,0.9c1.6,0,2.3-0.8,2.3-1.8c0-1-0.6-1.6-2.2-2.2c-2.2-0.8-3.2-2-3.2-3.4
			c0-1.9,1.6-3.5,4.2-3.5c1.2,0,2.3,0.3,3,0.8l-0.5,1.6c-0.5-0.3-1.3-0.7-2.5-0.7c-1.3,0-2,0.8-2,1.6c0,1,0.7,1.5,2.3,2
			c2.1,0.8,3.2,1.8,3.2,3.6c0,2.1-1.7,3.6-4.5,3.6c-1.3,0-2.5-0.3-3.4-0.8L-3768.3,4844.5z"/>
		<path class="st0" d="M-3755.4,4831.2v3.5h3.1v1.7h-3.1v6.5c0,1.5,0.4,2.3,1.6,2.3c0.6,0,1-0.1,1.3-0.1l0.1,1.6
			c-0.4,0.2-1.1,0.3-1.9,0.3c-1,0-1.8-0.3-2.4-0.9c-0.6-0.6-0.8-1.7-0.8-3.1v-6.6h-1.9v-1.7h1.9v-2.9L-3755.4,4831.2z"/>
		<path class="st0" d="M-3743.1,4846.8l-0.2-1.5h-0.1c-0.7,0.9-2,1.8-3.7,1.8c-2.4,0-3.7-1.7-3.7-3.5c0-2.9,2.6-4.5,7.3-4.5v-0.2
			c0-1-0.3-2.8-2.7-2.8c-1.1,0-2.3,0.3-3.2,0.9l-0.5-1.4c1-0.7,2.4-1.1,4-1.1c3.7,0,4.6,2.5,4.6,4.9v4.5c0,1,0,2.1,0.2,2.9H-3743.1z
			 M-3743.4,4840.6c-2.4,0-5.1,0.4-5.1,2.7c0,1.4,1,2.1,2.1,2.1c1.6,0,2.6-1,2.9-2c0.1-0.2,0.1-0.5,0.1-0.7V4840.6z"/>
		<path class="st0" d="M-3737.8,4838c0-1.2,0-2.3-0.1-3.3h1.9l0.1,1.9h0.1c0.7-1.1,1.8-2.2,3.8-2.2c1.7,0,2.9,1,3.4,2.4h0.1
			c0.4-0.7,0.8-1.2,1.3-1.6c0.7-0.5,1.5-0.8,2.7-0.8c1.6,0,4,1,4,5.2v7.1h-2.2v-6.8c0-2.3-0.8-3.7-2.6-3.7c-1.2,0-2.2,0.9-2.6,2
			c-0.1,0.3-0.2,0.7-0.2,1.1v7.5h-2.1v-7.2c0-1.9-0.9-3.3-2.5-3.3c-1.4,0-2.4,1.1-2.7,2.2c-0.1,0.3-0.2,0.7-0.2,1.1v7.3h-2.2V4838z"
			/>
		<path class="st0" d="M-3716.9,4838.6c0-1.5,0-2.8-0.1-3.9h2l0.1,2.1h0.1c0.9-1.5,2.3-2.3,4.3-2.3c2.9,0,5.1,2.5,5.1,6.1
			c0,4.3-2.6,6.5-5.5,6.5c-1.6,0-3-0.7-3.7-1.9h0v6.6h-2.2V4838.6z M-3714.7,4841.9c0,0.3,0,0.6,0.1,0.9c0.4,1.5,1.7,2.6,3.3,2.6
			c2.3,0,3.7-1.9,3.7-4.7c0-2.4-1.3-4.5-3.6-4.5c-1.5,0-2.9,1.1-3.3,2.7c-0.1,0.3-0.1,0.6-0.1,0.9V4841.9z"/>
	</g>
</g>
</svg>
