<?xml version="1.0" encoding="utf-8"?>
<!-- Generator: Adobe Illustrator 21.1.0, SVG Export Plug-In . SVG Version: 6.00 Build 0)  -->
<svg version="1.1" id="Layer_1" xmlns="http://www.w3.org/2000/svg" xmlns:xlink="http://www.w3.org/1999/xlink" x="0px" y="0px"
	 viewBox="0 0 104 118.4" style="enable-background:new 0 0 104 118.4;" xml:space="preserve">
<style type="text/css">
	.st0{fill:none;stroke:#043275;stroke-width:4;}
	.st1{fill:#043275;}
	.st2{enable-background:new    ;}
	.st3{fill:#FFFFFF;}
</style>
<g transform="translate(4781 -9731)">
	<g>
		<line class="st0" x1="-4728.5" y1="9833.4" x2="-4728.5" y2="9849.4"/>
	</g>
	<g>
		<path class="st1" d="M-4728.6,9833.8c-10.2,0-20.3-3-28.7-8.8c-8.3-5.6-14.7-13.4-18.6-22.6c-6.8-16-5-34.3,4.7-48.7
			c5.6-8.3,13.4-14.7,22.6-18.6c16-6.8,34.3-5,48.7,4.7c8.3,5.6,14.7,13.4,18.6,22.6c6.8,16,5,34.3-4.7,48.7
			c-5.6,8.3-13.4,14.7-22.6,18.6C-4714.9,9832.4-4721.7,9833.8-4728.6,9833.8z M-4728.6,9736.9c-9.1,0-17.9,2.7-25.4,7.8
			c-7.3,4.9-13,11.9-16.5,20c-6,14.1-4.4,30.4,4.2,43.1c4.9,7.3,11.9,13,20,16.5c14.1,6,30.4,4.4,43.1-4.2c7.3-4.9,13-11.9,16.5-20
			c6-14.2,4.4-30.4-4.2-43.1c-4.9-7.3-11.9-13-20-16.5C-4716.5,9738.1-4722.5,9736.9-4728.6,9736.9z M-4728.6,9825.5
			c-8.6,0-17-2.6-24.1-7.4c-6.9-4.7-12.4-11.3-15.6-19c-5.7-13.4-4.2-28.8,4-40.9c4.7-6.9,11.3-12.4,19-15.6
			c13.4-5.7,28.8-4.2,40.9,4c6.9,4.7,12.4,11.3,15.6,19c5.7,13.4,4.2,28.8-4,40.9c-4.7,6.9-11.3,12.4-19,15.6
			C-4717.1,9824.4-4722.8,9825.5-4728.6,9825.5z"/>
	</g>
	<g class="st2">
		<path class="st3" d="M-4739.2,9775.9c-0.1,0.6-0.3,1.1-0.6,1.6c-0.3,0.5-0.8,0.9-1.4,1.2c-0.6,0.3-1.5,0.5-2.5,0.5
			c-0.6,0-1.2-0.1-1.7-0.2c-0.6-0.2-1.1-0.4-1.5-0.8c-0.4-0.4-0.8-0.8-1.1-1.4c-0.3-0.6-0.4-1.2-0.4-2v-1.2h2.8v0.6
			c0,0.3,0,0.7,0.1,1c0.1,0.3,0.1,0.5,0.3,0.8s0.3,0.4,0.5,0.5s0.5,0.2,0.9,0.2c0.4,0,0.7-0.1,1-0.2c0.2-0.1,0.4-0.3,0.5-0.6
			c0.1-0.2,0.2-0.5,0.2-0.8s0-0.5,0-0.8v-9.6h3.1v9.8C-4739.1,9774.9-4739.1,9775.4-4739.2,9775.9z"/>
		<path class="st3" d="M-4729.2,9764.6l5.3,14.3h-3.3l-1.1-3.2h-5.3l-1.1,3.2h-3.2l5.4-14.3H-4729.2z M-4729,9773.4l-1.8-5.2h0
			l-1.9,5.2H-4729z"/>
		<path class="st3" d="M-4719.5,9764.6l6,9.6h0v-9.6h2.9v14.3h-3.1l-5.9-9.6h0v9.6h-2.9v-14.3H-4719.5z"/>
	</g>
	<g class="st2">
		<path class="st3" d="M-4750.2,9791c0.2-0.7,0.5-1.3,1-1.8s1-0.9,1.6-1.2c0.6-0.3,1.4-0.4,2.2-0.4c0.6,0,1.2,0.1,1.8,0.3
			s1.1,0.5,1.5,0.9c0.4,0.4,0.8,0.8,1,1.4c0.3,0.5,0.4,1.2,0.4,1.8c0,0.7-0.1,1.3-0.3,1.8c-0.2,0.5-0.5,1-0.9,1.3
			c-0.4,0.4-0.8,0.8-1.3,1.1s-0.9,0.6-1.4,0.9c-0.5,0.3-0.9,0.7-1.4,1c-0.5,0.4-0.9,0.8-1.2,1.3h6.6v2.4h-10.3
			c0-0.8,0.1-1.5,0.4-2.1c0.2-0.6,0.5-1.1,1-1.6c0.4-0.5,0.9-0.9,1.4-1.3s1.1-0.8,1.7-1.2c0.3-0.2,0.6-0.4,1-0.7
			c0.3-0.2,0.7-0.5,1-0.7c0.3-0.3,0.5-0.6,0.7-0.9c0.2-0.3,0.3-0.7,0.3-1.1c0-0.7-0.2-1.2-0.6-1.6c-0.4-0.4-0.9-0.6-1.5-0.6
			c-0.4,0-0.8,0.1-1.1,0.3s-0.5,0.4-0.7,0.8c-0.2,0.3-0.3,0.7-0.4,1c-0.1,0.4-0.1,0.8-0.1,1.1h-2.7
			C-4750.5,9792.5-4750.4,9791.7-4750.2,9791z"/>
		<path class="st3" d="M-4739.3,9791.4c0.3-0.9,0.6-1.7,1.1-2.2s1-1,1.6-1.2c0.6-0.2,1.3-0.4,2-0.4c0.7,0,1.4,0.1,2,0.4
			c0.6,0.2,1.2,0.6,1.6,1.2s0.8,1.3,1.1,2.2c0.3,0.9,0.4,2.1,0.4,3.4c0,1.4-0.1,2.6-0.4,3.5c-0.3,0.9-0.6,1.7-1.1,2.2s-1,1-1.6,1.2
			c-0.6,0.2-1.3,0.4-2,0.4c-0.7,0-1.4-0.1-2-0.4c-0.6-0.2-1.2-0.6-1.6-1.2s-0.8-1.3-1.1-2.2c-0.3-0.9-0.4-2.1-0.4-3.5
			C-4739.7,9793.5-4739.6,9792.3-4739.3,9791.4z M-4736.8,9796.3c0,0.6,0.1,1.1,0.2,1.6c0.1,0.5,0.4,1,0.7,1.3
			c0.3,0.4,0.7,0.6,1.3,0.6c0.6,0,1-0.2,1.4-0.6c0.3-0.4,0.5-0.8,0.7-1.3c0.1-0.5,0.2-1.1,0.2-1.6c0-0.6,0-1,0-1.4
			c0-0.2,0-0.5,0-0.9c0-0.3,0-0.7-0.1-1.1c0-0.4-0.1-0.7-0.2-1.1s-0.2-0.7-0.4-0.9c-0.2-0.3-0.4-0.5-0.7-0.7c-0.3-0.2-0.6-0.3-1-0.3
			s-0.7,0.1-1,0.3c-0.3,0.2-0.5,0.4-0.6,0.7c-0.2,0.3-0.3,0.6-0.4,0.9s-0.2,0.7-0.2,1.1s-0.1,0.7-0.1,1.1c0,0.3,0,0.6,0,0.9
			C-4736.9,9795.2-4736.8,9795.7-4736.8,9796.3z"/>
		<path class="st3" d="M-4724,9801.9v-9.1h-3.5v-2.1c0.5,0,1,0,1.4-0.1c0.5-0.1,0.9-0.2,1.2-0.5c0.4-0.2,0.7-0.5,0.9-0.9
			c0.3-0.4,0.4-0.8,0.5-1.3h2.3v14H-4724z"/>
		<path class="st3" d="M-4716.6,9789.8c0.3-0.5,0.6-0.9,1.1-1.2c0.4-0.3,0.9-0.6,1.5-0.7c0.6-0.2,1.1-0.2,1.7-0.2
			c0.9,0,1.6,0.1,2.2,0.4c0.6,0.3,1.1,0.6,1.5,1c0.4,0.4,0.6,0.8,0.8,1.2c0.2,0.4,0.2,0.8,0.2,1.2c0,0.7-0.2,1.3-0.5,1.8
			c-0.3,0.5-0.8,0.9-1.5,1.1v0c0.8,0.2,1.5,0.6,1.9,1.2c0.5,0.6,0.7,1.3,0.7,2.2c0,0.7-0.1,1.4-0.4,1.9c-0.3,0.5-0.7,1-1.2,1.4
			c-0.5,0.4-1.1,0.6-1.7,0.8c-0.6,0.2-1.3,0.3-1.9,0.3c-0.7,0-1.3-0.1-2-0.2c-0.6-0.2-1.2-0.4-1.7-0.8c-0.5-0.4-0.9-0.8-1.2-1.4
			s-0.5-1.2-0.5-2c0-0.9,0.2-1.6,0.7-2.2c0.5-0.6,1.1-1,1.9-1.2v0c-0.7-0.2-1.2-0.5-1.5-1.1c-0.3-0.5-0.5-1.1-0.5-1.8
			C-4717,9790.8-4716.9,9790.3-4716.6,9789.8z M-4714.6,9798.6c0.1,0.3,0.3,0.5,0.5,0.8s0.5,0.4,0.8,0.5s0.6,0.2,1,0.2
			c0.3,0,0.7-0.1,1-0.2c0.3-0.1,0.5-0.3,0.8-0.5c0.2-0.2,0.4-0.5,0.5-0.8c0.1-0.3,0.2-0.6,0.2-1c0-0.3-0.1-0.6-0.2-0.9
			s-0.3-0.5-0.5-0.7c-0.2-0.2-0.5-0.4-0.8-0.5c-0.3-0.1-0.6-0.2-0.9-0.2c-0.7,0-1.3,0.2-1.8,0.6c-0.5,0.4-0.7,0.9-0.7,1.7
			C-4714.8,9798-4714.7,9798.3-4714.6,9798.6z M-4713.8,9793.1c0.4,0.3,0.9,0.5,1.5,0.5c0.6,0,1.1-0.2,1.5-0.5
			c0.4-0.3,0.6-0.8,0.6-1.4c0-0.2,0-0.4-0.1-0.6s-0.2-0.4-0.3-0.6c-0.2-0.2-0.4-0.4-0.6-0.5c-0.3-0.1-0.6-0.2-1.1-0.2
			c-0.3,0-0.5,0-0.8,0.1c-0.3,0.1-0.5,0.2-0.7,0.4c-0.2,0.2-0.4,0.4-0.5,0.6s-0.2,0.5-0.2,0.8
			C-4714.4,9792.3-4714.2,9792.7-4713.8,9793.1z"/>
	</g>
</g>
</svg>
