<?xml version="1.0" encoding="utf-8"?>
<!-- Generator: Adobe Illustrator 21.1.0, SVG Export Plug-In . SVG Version: 6.00 Build 0)  -->
<svg version="1.1" id="Layer_1" xmlns="http://www.w3.org/2000/svg" xmlns:xlink="http://www.w3.org/1999/xlink" x="0px" y="0px"
	 viewBox="0 0 104 188" style="enable-background:new 0 0 104 188;" xml:space="preserve">
<style type="text/css">
	.st0{fill:#043275;}
	.st1{enable-background:new    ;}
	.st2{fill:#FFFFFF;}
	.st3{fill:none;stroke:#043275;stroke-width:4;}
</style>
<g transform="translate(4781 -9731)">
	<g>
		<path class="st0" d="M-4728.6,9902.3c-10.2,0-20.3-3-28.7-8.8c-8.3-5.6-14.7-13.4-18.6-22.6c-6.8-16-5-34.3,4.7-48.7
			c5.6-8.3,13.4-14.7,22.6-18.6c16-6.8,34.3-5,48.7,4.7c8.3,5.6,14.7,13.4,18.6,22.6c6.8,16,5,34.3-4.7,48.7
			c-5.6,8.3-13.4,14.7-22.6,18.6C-4714.9,9900.9-4721.7,9902.3-4728.6,9902.3z M-4728.6,9805.4c-9.1,0-17.9,2.7-25.4,7.8
			c-7.3,4.9-13,11.9-16.5,20c-6,14.1-4.4,30.4,4.2,43.1c4.9,7.3,11.9,13,20,16.5c14.1,6,30.4,4.4,43.1-4.2c7.3-4.9,13-11.9,16.5-20
			c6-14.2,4.4-30.4-4.2-43.1c-4.9-7.3-11.9-13-20-16.5C-4716.5,9806.6-4722.5,9805.4-4728.6,9805.4z M-4728.6,9894
			c-8.6,0-17-2.6-24.1-7.4c-6.9-4.7-12.4-11.3-15.6-19c-5.7-13.4-4.2-28.8,4-40.9c4.7-6.9,11.3-12.4,19-15.6
			c13.4-5.7,28.8-4.2,40.9,4c6.9,4.7,12.4,11.3,15.6,19c5.7,13.4,4.2,28.8-4,40.9c-4.7,6.9-11.3,12.4-19,15.6
			C-4717.1,9892.9-4722.8,9894-4728.6,9894z"/>
	</g>
	<g class="st1">
		<path class="st2" d="M-4731.1,9846c-0.9,0.5-2.1,0.8-3.5,0.8c-1.1,0-2.1-0.2-2.9-0.6c-0.9-0.4-1.6-0.9-2.2-1.6
			c-0.6-0.7-1.1-1.4-1.4-2.3c-0.3-0.9-0.5-1.9-0.5-2.9c0-1.1,0.2-2.1,0.5-3c0.3-0.9,0.8-1.7,1.4-2.4c0.6-0.7,1.3-1.2,2.2-1.6
			c0.9-0.4,1.9-0.6,2.9-0.6c1.1,0,2.1,0.2,3,0.6c0.9,0.4,1.6,0.9,2.2,1.6c0.6,0.7,1.1,1.5,1.4,2.4c0.3,0.9,0.5,1.9,0.5,3
			c0,1-0.2,2-0.5,2.9c-0.3,0.9-0.8,1.7-1.4,2.4l1.8,1.6l-1.5,1.5L-4731.1,9846z M-4731.6,9842.7c0.3-0.4,0.5-0.8,0.6-1.3
			s0.2-1.2,0.2-1.9c0-0.6-0.1-1.2-0.2-1.8c-0.1-0.6-0.4-1.1-0.7-1.6s-0.7-0.8-1.2-1.1c-0.5-0.3-1.1-0.4-1.8-0.4s-1.3,0.1-1.8,0.4
			c-0.5,0.3-0.9,0.6-1.2,1.1s-0.5,1-0.7,1.6c-0.1,0.6-0.2,1.2-0.2,1.8c0,0.6,0.1,1.2,0.2,1.7c0.1,0.6,0.4,1.1,0.7,1.5
			c0.3,0.5,0.7,0.8,1.2,1.1c0.5,0.3,1.1,0.4,1.8,0.4c0.3,0,0.6,0,0.8,0c0.2,0,0.3-0.1,0.5-0.1l-1.3-1.2l1.5-1.6L-4731.6,9842.7z"/>
		<path class="st2" d="M-4725.8,9835.7c0.2-0.7,0.5-1.3,1-1.8c0.4-0.5,1-0.9,1.6-1.2c0.6-0.3,1.4-0.4,2.2-0.4c0.6,0,1.2,0.1,1.8,0.3
			c0.6,0.2,1.1,0.5,1.5,0.9c0.4,0.4,0.8,0.8,1,1.4c0.3,0.5,0.4,1.2,0.4,1.8c0,0.7-0.1,1.3-0.3,1.8s-0.5,1-0.9,1.3
			c-0.4,0.4-0.8,0.8-1.3,1.1s-0.9,0.6-1.4,1s-0.9,0.7-1.4,1c-0.5,0.4-0.9,0.8-1.2,1.3h6.6v2.4h-10.3c0-0.8,0.1-1.5,0.3-2.1
			c0.2-0.6,0.5-1.1,1-1.6c0.4-0.5,0.9-0.9,1.4-1.3c0.5-0.4,1.1-0.8,1.7-1.2c0.3-0.2,0.6-0.4,1-0.7s0.7-0.5,1-0.7s0.5-0.6,0.7-0.9
			c0.2-0.3,0.3-0.7,0.3-1.1c0-0.7-0.2-1.2-0.6-1.6c-0.4-0.4-0.9-0.6-1.5-0.6c-0.4,0-0.8,0.1-1.1,0.3c-0.3,0.2-0.5,0.4-0.7,0.8
			s-0.3,0.7-0.4,1s-0.1,0.8-0.1,1.1h-2.7C-4726.1,9837.1-4726,9836.3-4725.8,9835.7z"/>
	</g>
	<g class="st1">
		<path class="st2" d="M-4750.2,9858.7c0.2-0.7,0.5-1.3,1-1.8c0.4-0.5,1-0.9,1.6-1.2c0.6-0.3,1.4-0.4,2.2-0.4c0.6,0,1.2,0.1,1.8,0.3
			c0.6,0.2,1.1,0.5,1.5,0.9c0.4,0.4,0.8,0.8,1,1.4c0.3,0.5,0.4,1.2,0.4,1.8c0,0.7-0.1,1.3-0.3,1.8s-0.5,1-0.9,1.3
			c-0.4,0.4-0.8,0.8-1.3,1.1s-0.9,0.6-1.4,1s-0.9,0.7-1.4,1c-0.5,0.4-0.9,0.8-1.2,1.3h6.6v2.4h-10.3c0-0.8,0.1-1.5,0.4-2.1
			c0.2-0.6,0.5-1.1,1-1.6c0.4-0.5,0.9-0.9,1.4-1.3s1.1-0.8,1.7-1.2c0.3-0.2,0.6-0.4,1-0.7s0.7-0.5,1-0.7c0.3-0.3,0.5-0.6,0.7-0.9
			c0.2-0.3,0.3-0.7,0.3-1.1c0-0.7-0.2-1.2-0.6-1.6c-0.4-0.4-0.9-0.6-1.5-0.6c-0.4,0-0.8,0.1-1.1,0.3s-0.5,0.4-0.7,0.8
			s-0.3,0.7-0.4,1s-0.1,0.8-0.1,1.1h-2.7C-4750.5,9860.1-4750.4,9859.3-4750.2,9858.7z"/>
		<path class="st2" d="M-4739.3,9859c0.3-0.9,0.6-1.7,1.1-2.2c0.5-0.6,1-1,1.6-1.2c0.6-0.2,1.3-0.4,2-0.4c0.7,0,1.4,0.1,2,0.4
			c0.6,0.2,1.2,0.6,1.6,1.2c0.5,0.6,0.8,1.3,1.1,2.2c0.3,0.9,0.4,2.1,0.4,3.4c0,1.4-0.1,2.6-0.4,3.5c-0.3,0.9-0.6,1.7-1.1,2.2
			c-0.5,0.6-1,1-1.6,1.2c-0.6,0.2-1.3,0.4-2,0.4c-0.7,0-1.4-0.1-2-0.4c-0.6-0.2-1.2-0.6-1.6-1.2c-0.5-0.6-0.8-1.3-1.1-2.2
			c-0.3-0.9-0.4-2.1-0.4-3.5C-4739.7,9861.1-4739.6,9859.9-4739.3,9859z M-4736.8,9863.9c0,0.6,0.1,1.1,0.2,1.6
			c0.1,0.5,0.4,1,0.7,1.3c0.3,0.4,0.7,0.6,1.3,0.6c0.6,0,1-0.2,1.4-0.6c0.3-0.4,0.5-0.8,0.7-1.3c0.1-0.5,0.2-1.1,0.2-1.6
			c0-0.6,0-1,0-1.4c0-0.2,0-0.5,0-0.9c0-0.3,0-0.7-0.1-1.1c0-0.4-0.1-0.7-0.2-1.1s-0.2-0.7-0.4-1c-0.2-0.3-0.4-0.5-0.7-0.7
			c-0.3-0.2-0.6-0.3-1-0.3s-0.7,0.1-1,0.3c-0.3,0.2-0.5,0.4-0.6,0.7c-0.2,0.3-0.3,0.6-0.4,1s-0.2,0.7-0.2,1.1c0,0.4-0.1,0.7-0.1,1.1
			c0,0.3,0,0.6,0,0.9C-4736.9,9862.8-4736.8,9863.3-4736.8,9863.9z"/>
		<path class="st2" d="M-4724,9869.5v-9.1h-3.5v-2.1c0.5,0,1,0,1.4-0.1s0.9-0.2,1.2-0.5c0.4-0.2,0.7-0.5,0.9-0.9
			c0.3-0.4,0.4-0.8,0.5-1.3h2.3v14H-4724z"/>
		<path class="st2" d="M-4716.6,9857.4c0.3-0.5,0.6-0.9,1.1-1.2c0.4-0.3,0.9-0.6,1.5-0.7c0.6-0.2,1.1-0.2,1.7-0.2
			c0.9,0,1.6,0.1,2.2,0.4c0.6,0.3,1.1,0.6,1.5,1s0.6,0.8,0.8,1.2c0.2,0.4,0.2,0.8,0.2,1.2c0,0.7-0.2,1.3-0.5,1.8
			c-0.3,0.5-0.8,0.9-1.5,1.1v0c0.8,0.2,1.5,0.6,1.9,1.2c0.5,0.6,0.7,1.3,0.7,2.2c0,0.7-0.1,1.4-0.4,1.9c-0.3,0.5-0.7,1-1.2,1.4
			c-0.5,0.4-1.1,0.6-1.7,0.8c-0.6,0.2-1.3,0.3-1.9,0.3c-0.7,0-1.3-0.1-2-0.2c-0.6-0.2-1.2-0.4-1.7-0.8c-0.5-0.4-0.9-0.8-1.2-1.4
			s-0.5-1.2-0.5-2c0-0.9,0.2-1.6,0.7-2.2c0.5-0.6,1.1-1,1.9-1.2v0c-0.7-0.2-1.2-0.5-1.5-1.1c-0.3-0.5-0.5-1.1-0.5-1.8
			C-4717,9858.4-4716.9,9857.9-4716.6,9857.4z M-4714.6,9866.2c0.1,0.3,0.3,0.5,0.5,0.8s0.5,0.4,0.8,0.5s0.6,0.2,1,0.2
			c0.3,0,0.7-0.1,1-0.2c0.3-0.1,0.5-0.3,0.8-0.5c0.2-0.2,0.4-0.5,0.5-0.8c0.1-0.3,0.2-0.6,0.2-1c0-0.3-0.1-0.6-0.2-0.9
			s-0.3-0.5-0.5-0.7c-0.2-0.2-0.5-0.4-0.8-0.5s-0.6-0.2-0.9-0.2c-0.7,0-1.3,0.2-1.8,0.6c-0.5,0.4-0.7,0.9-0.7,1.6
			C-4714.8,9865.6-4714.7,9865.9-4714.6,9866.2z M-4713.8,9860.7c0.4,0.3,0.9,0.5,1.5,0.5c0.6,0,1.1-0.2,1.5-0.5
			c0.4-0.3,0.6-0.8,0.6-1.4c0-0.2,0-0.4-0.1-0.6c-0.1-0.2-0.2-0.4-0.3-0.6c-0.2-0.2-0.4-0.4-0.6-0.5c-0.3-0.1-0.6-0.2-1.1-0.2
			c-0.3,0-0.5,0-0.8,0.1c-0.3,0.1-0.5,0.2-0.7,0.4c-0.2,0.2-0.4,0.4-0.5,0.6s-0.2,0.5-0.2,0.8
			C-4714.4,9859.9-4714.2,9860.4-4713.8,9860.7z"/>
	</g>
	<g>
		<line class="st3" x1="-4728.5" y1="9902" x2="-4728.5" y2="9919"/>
	</g>
	<g>
		<line class="st3" x1="-4728.5" y1="9731" x2="-4728.5" y2="9800"/>
	</g>
</g>
</svg>
