<?xml version="1.0" encoding="utf-8"?>
<!-- Generator: Adobe Illustrator 21.1.0, SVG Export Plug-In . SVG Version: 6.00 Build 0)  -->
<svg version="1.1" id="Layer_1" xmlns="http://www.w3.org/2000/svg" xmlns:xlink="http://www.w3.org/1999/xlink" x="0px" y="0px"
	 viewBox="0 0 104 189" style="enable-background:new 0 0 104 189;" xml:space="preserve">
<style type="text/css">
	.st0{fill:#043275;}
	.st1{enable-background:new    ;}
	.st2{fill:#FFFFFF;}
	.st3{fill:none;stroke:#043275;stroke-width:4;}
</style>
<g transform="translate(4781 -9731)">
	<g transform="translate(213 357)">
		<g>
			<path class="st0" d="M-4941.6,9546.3c-10.2,0-20.3-3-28.7-8.8c-8.3-5.6-14.7-13.4-18.6-22.6c-6.8-16-5-34.3,4.7-48.7
				c5.6-8.3,13.4-14.7,22.6-18.6c16-6.8,34.3-5,48.7,4.7c8.3,5.6,14.7,13.4,18.6,22.6c6.8,16,5,34.3-4.7,48.7
				c-5.6,8.3-13.4,14.7-22.6,18.6C-4927.9,9544.9-4934.7,9546.3-4941.6,9546.3z M-4941.6,9449.4c-9.1,0-17.9,2.7-25.4,7.8
				c-7.3,4.9-13,11.9-16.5,20c-6,14.1-4.4,30.4,4.2,43.1c4.9,7.3,11.9,13,20,16.5c14.1,6,30.4,4.4,43.1-4.2c7.3-4.9,13-11.9,16.5-20
				c6-14.2,4.4-30.4-4.2-43.1c-4.9-7.3-11.9-13-20-16.5C-4929.5,9450.6-4935.5,9449.4-4941.6,9449.4z M-4941.6,9538
				c-8.6,0-17-2.6-24.1-7.4c-6.9-4.7-12.4-11.3-15.6-19c-5.7-13.4-4.2-28.8,4-40.9c4.7-6.9,11.3-12.4,19-15.6
				c13.4-5.7,28.8-4.2,40.9,4c6.9,4.7,12.4,11.3,15.6,19c5.7,13.4,4.2,28.8-4,40.9c-4.7,6.9-11.3,12.4-19,15.6
				C-4930.1,9536.9-4935.8,9538-4941.6,9538z"/>
		</g>
		<g class="st1">
			<path class="st2" d="M-4944.1,9490c-0.9,0.5-2.1,0.8-3.5,0.8c-1.1,0-2.1-0.2-2.9-0.6c-0.9-0.4-1.6-0.9-2.2-1.6
				c-0.6-0.7-1.1-1.4-1.4-2.3c-0.3-0.9-0.5-1.9-0.5-2.9c0-1.1,0.2-2.1,0.5-3c0.3-0.9,0.8-1.7,1.4-2.4c0.6-0.7,1.3-1.2,2.2-1.6
				c0.9-0.4,1.9-0.6,2.9-0.6c1.1,0,2.1,0.2,3,0.6c0.9,0.4,1.6,0.9,2.2,1.6c0.6,0.7,1.1,1.5,1.4,2.4c0.3,0.9,0.5,1.9,0.5,3
				c0,1-0.2,2-0.5,2.9c-0.3,0.9-0.8,1.7-1.4,2.4l1.8,1.6l-1.5,1.5L-4944.1,9490z M-4944.6,9486.7c0.3-0.4,0.5-0.8,0.6-1.3
				s0.2-1.2,0.2-1.9c0-0.6-0.1-1.2-0.2-1.8c-0.1-0.6-0.4-1.1-0.7-1.6s-0.7-0.8-1.2-1.1c-0.5-0.3-1.1-0.4-1.8-0.4s-1.3,0.1-1.8,0.4
				c-0.5,0.3-0.9,0.6-1.2,1.1s-0.5,1-0.7,1.6c-0.1,0.6-0.2,1.2-0.2,1.8c0,0.6,0.1,1.2,0.2,1.7c0.1,0.6,0.4,1.1,0.7,1.5
				c0.3,0.5,0.7,0.8,1.2,1.1c0.5,0.3,1.1,0.4,1.8,0.4c0.3,0,0.6,0,0.8,0c0.2,0,0.3-0.1,0.5-0.1l-1.3-1.2l1.5-1.6L-4944.6,9486.7z"/>
			<path class="st2" d="M-4934.2,9482.2c0.3,0,0.7-0.1,1-0.2c0.3-0.1,0.5-0.3,0.7-0.5s0.3-0.6,0.3-1c0-0.6-0.2-1.1-0.6-1.4
				s-0.9-0.5-1.4-0.5c-0.7,0-1.3,0.2-1.6,0.7c-0.4,0.5-0.5,1.1-0.5,1.8h-2.7c0-0.7,0.2-1.4,0.4-2c0.2-0.6,0.6-1.1,1-1.5
				c0.4-0.4,0.9-0.8,1.5-1c0.6-0.2,1.2-0.4,2-0.4c0.6,0,1.1,0.1,1.7,0.2c0.6,0.2,1.1,0.4,1.5,0.8c0.4,0.3,0.8,0.7,1.1,1.2
				c0.3,0.5,0.4,1,0.4,1.7c0,0.7-0.2,1.3-0.5,1.8c-0.3,0.5-0.8,0.9-1.5,1.1v0c0.8,0.2,1.4,0.5,1.8,1.1s0.7,1.3,0.7,2.1
				c0,0.7-0.1,1.4-0.4,2c-0.3,0.6-0.7,1.1-1.2,1.4s-1,0.7-1.7,0.9s-1.3,0.3-2,0.3c-0.8,0-1.5-0.1-2.1-0.3c-0.6-0.2-1.2-0.6-1.7-1
				c-0.5-0.4-0.8-1-1.1-1.6c-0.2-0.6-0.4-1.3-0.3-2.2h2.7c0,0.4,0.1,0.7,0.2,1.1c0.1,0.3,0.3,0.6,0.5,0.9c0.2,0.2,0.5,0.4,0.8,0.6
				c0.3,0.1,0.7,0.2,1.1,0.2c0.6,0,1.2-0.2,1.6-0.6c0.4-0.4,0.7-0.9,0.7-1.6c0-0.5-0.1-0.9-0.3-1.2c-0.2-0.3-0.5-0.5-0.8-0.6
				s-0.7-0.2-1-0.2c-0.4,0-0.7,0-1.1,0v-2C-4934.9,9482.2-4934.6,9482.2-4934.2,9482.2z"/>
		</g>
		<g class="st1">
			<path class="st2" d="M-4963.2,9502.7c0.2-0.7,0.5-1.3,1-1.8c0.4-0.5,1-0.9,1.6-1.2c0.6-0.3,1.4-0.4,2.2-0.4
				c0.6,0,1.2,0.1,1.8,0.3c0.6,0.2,1.1,0.5,1.5,0.9c0.4,0.4,0.8,0.8,1,1.4c0.3,0.5,0.4,1.2,0.4,1.8c0,0.7-0.1,1.3-0.3,1.8
				s-0.5,1-0.9,1.3c-0.4,0.4-0.8,0.8-1.3,1.1s-0.9,0.6-1.4,1s-0.9,0.7-1.4,1c-0.5,0.4-0.9,0.8-1.2,1.3h6.6v2.4h-10.3
				c0-0.8,0.1-1.5,0.4-2.1c0.2-0.6,0.5-1.1,1-1.6c0.4-0.5,0.9-0.9,1.4-1.3s1.1-0.8,1.7-1.2c0.3-0.2,0.6-0.4,1-0.7s0.7-0.5,1-0.7
				c0.3-0.3,0.5-0.6,0.7-0.9c0.2-0.3,0.3-0.7,0.3-1.1c0-0.7-0.2-1.2-0.6-1.6c-0.4-0.4-0.9-0.6-1.5-0.6c-0.4,0-0.8,0.1-1.1,0.3
				s-0.5,0.4-0.7,0.8s-0.3,0.7-0.4,1s-0.1,0.8-0.1,1.1h-2.7C-4963.5,9504.1-4963.4,9503.3-4963.2,9502.7z"/>
			<path class="st2" d="M-4952.3,9503c0.3-0.9,0.6-1.7,1.1-2.2c0.5-0.6,1-1,1.6-1.2c0.6-0.2,1.3-0.4,2-0.4c0.7,0,1.4,0.1,2,0.4
				c0.6,0.2,1.2,0.6,1.6,1.2c0.5,0.6,0.8,1.3,1.1,2.2c0.3,0.9,0.4,2.1,0.4,3.4c0,1.4-0.1,2.6-0.4,3.5c-0.3,0.9-0.6,1.7-1.1,2.2
				c-0.5,0.6-1,1-1.6,1.2c-0.6,0.2-1.3,0.4-2,0.4c-0.7,0-1.4-0.1-2-0.4c-0.6-0.2-1.2-0.6-1.6-1.2c-0.5-0.6-0.8-1.3-1.1-2.2
				c-0.3-0.9-0.4-2.1-0.4-3.5C-4952.7,9505.1-4952.6,9503.9-4952.3,9503z M-4949.8,9507.9c0,0.6,0.1,1.1,0.2,1.6
				c0.1,0.5,0.4,1,0.7,1.3c0.3,0.4,0.7,0.6,1.3,0.6c0.6,0,1-0.2,1.4-0.6c0.3-0.4,0.5-0.8,0.7-1.3c0.1-0.5,0.2-1.1,0.2-1.6
				c0-0.6,0-1,0-1.4c0-0.2,0-0.5,0-0.9c0-0.3,0-0.7-0.1-1.1c0-0.4-0.1-0.7-0.2-1.1s-0.2-0.7-0.4-1c-0.2-0.3-0.4-0.5-0.7-0.7
				c-0.3-0.2-0.6-0.3-1-0.3s-0.7,0.1-1,0.3c-0.3,0.2-0.5,0.4-0.6,0.7c-0.2,0.3-0.3,0.6-0.4,1s-0.2,0.7-0.2,1.1
				c0,0.4-0.1,0.7-0.1,1.1c0,0.3,0,0.6,0,0.9C-4949.9,9506.8-4949.8,9507.3-4949.8,9507.9z"/>
			<path class="st2" d="M-4937,9513.5v-9.1h-3.5v-2.1c0.5,0,1,0,1.4-0.1s0.9-0.2,1.2-0.5c0.4-0.2,0.7-0.5,0.9-0.9
				c0.3-0.4,0.4-0.8,0.5-1.3h2.3v14H-4937z"/>
			<path class="st2" d="M-4929.6,9501.4c0.3-0.5,0.6-0.9,1.1-1.2c0.4-0.3,0.9-0.6,1.5-0.7c0.6-0.2,1.1-0.2,1.7-0.2
				c0.9,0,1.6,0.1,2.2,0.4c0.6,0.3,1.1,0.6,1.5,1s0.6,0.8,0.8,1.2c0.2,0.4,0.2,0.8,0.2,1.2c0,0.7-0.2,1.3-0.5,1.8
				c-0.3,0.5-0.8,0.9-1.5,1.1v0c0.8,0.2,1.5,0.6,1.9,1.2c0.5,0.6,0.7,1.3,0.7,2.2c0,0.7-0.1,1.4-0.4,1.9c-0.3,0.5-0.7,1-1.2,1.4
				c-0.5,0.4-1.1,0.6-1.7,0.8c-0.6,0.2-1.3,0.3-1.9,0.3c-0.7,0-1.3-0.1-2-0.2c-0.6-0.2-1.2-0.4-1.7-0.8c-0.5-0.4-0.9-0.8-1.2-1.4
				s-0.5-1.2-0.5-2c0-0.9,0.2-1.6,0.7-2.2c0.5-0.6,1.1-1,1.9-1.2v0c-0.7-0.2-1.2-0.5-1.5-1.1c-0.3-0.5-0.5-1.1-0.5-1.8
				C-4930,9502.4-4929.9,9501.9-4929.6,9501.4z M-4927.6,9510.2c0.1,0.3,0.3,0.5,0.5,0.8s0.5,0.4,0.8,0.5s0.6,0.2,1,0.2
				c0.3,0,0.7-0.1,1-0.2c0.3-0.1,0.5-0.3,0.8-0.5c0.2-0.2,0.4-0.5,0.5-0.8c0.1-0.3,0.2-0.6,0.2-1c0-0.3-0.1-0.6-0.2-0.9
				s-0.3-0.5-0.5-0.7c-0.2-0.2-0.5-0.4-0.8-0.5s-0.6-0.2-0.9-0.2c-0.7,0-1.3,0.2-1.8,0.6c-0.5,0.4-0.7,0.9-0.7,1.6
				C-4927.8,9509.6-4927.7,9509.9-4927.6,9510.2z M-4926.8,9504.7c0.4,0.3,0.9,0.5,1.5,0.5c0.6,0,1.1-0.2,1.5-0.5
				c0.4-0.3,0.6-0.8,0.6-1.4c0-0.2,0-0.4-0.1-0.6c-0.1-0.2-0.2-0.4-0.3-0.6c-0.2-0.2-0.4-0.4-0.6-0.5c-0.3-0.1-0.6-0.2-1.1-0.2
				c-0.3,0-0.5,0-0.8,0.1c-0.3,0.1-0.5,0.2-0.7,0.4c-0.2,0.2-0.4,0.4-0.5,0.6s-0.2,0.5-0.2,0.8
				C-4927.4,9503.9-4927.2,9504.4-4926.8,9504.7z"/>
		</g>
	</g>
	<g>
		<line class="st3" x1="-4728.5" y1="9903" x2="-4728.5" y2="9920"/>
	</g>
	<g>
		<line class="st3" x1="-4728.5" y1="9731" x2="-4728.5" y2="9801"/>
	</g>
</g>
</svg>
