<?xml version="1.0" encoding="utf-8"?>
<!-- Generator: Adobe Illustrator 21.1.0, SVG Export Plug-In . SVG Version: 6.00 Build 0)  -->
<svg version="1.1" id="Layer_1" xmlns="http://www.w3.org/2000/svg" xmlns:xlink="http://www.w3.org/1999/xlink" x="0px" y="0px"
	 viewBox="0 0 104 189" style="enable-background:new 0 0 104 189;" xml:space="preserve">
<style type="text/css">
	.st0{fill:#043275;}
	.st1{enable-background:new    ;}
	.st2{fill:#FFFFFF;}
	.st3{fill:none;stroke:#043275;stroke-width:4;}
</style>
<g transform="translate(4781 -9731)">
	<g transform="translate(-116 436)">
		<g>
			<path class="st0" d="M-4612.6,9467.3c-10.2,0-20.3-3-28.7-8.8c-8.3-5.6-14.7-13.4-18.6-22.6c-6.8-16-5-34.3,4.7-48.7
				c5.6-8.3,13.4-14.7,22.6-18.6c16-6.8,34.3-5,48.7,4.7c8.3,5.6,14.7,13.4,18.6,22.6c6.8,16,5,34.3-4.7,48.7
				c-5.6,8.3-13.4,14.7-22.6,18.6C-4598.9,9465.9-4605.7,9467.3-4612.6,9467.3z M-4612.6,9370.4c-9.1,0-17.9,2.7-25.4,7.8
				c-7.3,4.9-13,11.9-16.5,20c-6,14.1-4.4,30.4,4.2,43.1c4.9,7.3,11.9,13,20,16.5c14.1,6,30.4,4.4,43.1-4.2c7.3-4.9,13-11.9,16.5-20
				c6-14.2,4.4-30.4-4.2-43.1c-4.9-7.3-11.9-13-20-16.5C-4600.5,9371.6-4606.5,9370.4-4612.6,9370.4z M-4612.6,9459
				c-8.6,0-17-2.6-24.1-7.4c-6.9-4.7-12.4-11.3-15.6-19c-5.7-13.4-4.2-28.8,4-40.9c4.7-6.9,11.3-12.4,19-15.6
				c13.4-5.7,28.8-4.2,40.9,4c6.9,4.7,12.4,11.3,15.6,19c5.7,13.4,4.2,28.8-4,40.9c-4.7,6.9-11.3,12.4-19,15.6
				C-4601.1,9457.9-4606.8,9459-4612.6,9459z"/>
		</g>
		<g class="st1">
			<path class="st2" d="M-4615.1,9411c-0.9,0.5-2.1,0.8-3.5,0.8c-1.1,0-2.1-0.2-2.9-0.6c-0.9-0.4-1.6-0.9-2.2-1.6
				c-0.6-0.7-1.1-1.4-1.4-2.3c-0.3-0.9-0.5-1.9-0.5-2.9c0-1.1,0.2-2.1,0.5-3c0.3-0.9,0.8-1.7,1.4-2.4c0.6-0.7,1.3-1.2,2.2-1.6
				c0.9-0.4,1.9-0.6,2.9-0.6c1.1,0,2.1,0.2,3,0.6c0.9,0.4,1.6,0.9,2.2,1.6c0.6,0.7,1.1,1.5,1.4,2.4c0.3,0.9,0.5,1.9,0.5,3
				c0,1-0.2,2-0.5,2.9c-0.3,0.9-0.8,1.7-1.4,2.4l1.8,1.6l-1.5,1.5L-4615.1,9411z M-4615.6,9407.7c0.3-0.4,0.5-0.8,0.6-1.3
				s0.2-1.2,0.2-1.9c0-0.6-0.1-1.2-0.2-1.8c-0.1-0.6-0.4-1.1-0.7-1.6s-0.7-0.8-1.2-1.1c-0.5-0.3-1.1-0.4-1.8-0.4s-1.3,0.1-1.8,0.4
				c-0.5,0.3-0.9,0.6-1.2,1.1s-0.5,1-0.7,1.6c-0.1,0.6-0.2,1.2-0.2,1.8c0,0.6,0.1,1.2,0.2,1.7c0.1,0.6,0.4,1.1,0.7,1.5
				c0.3,0.5,0.7,0.8,1.2,1.1c0.5,0.3,1.1,0.4,1.8,0.4c0.3,0,0.6,0,0.8,0c0.2,0,0.3-0.1,0.5-0.1l-1.3-1.2l1.5-1.6L-4615.6,9407.7z"/>
			<path class="st2" d="M-4610.5,9408.3v-2.6l6.1-8.2h2.5v8.4h1.9v2.3h-1.9v3.2h-2.7v-3.2H-4610.5z M-4604.6,9401.1l-3.6,4.9h3.7
				L-4604.6,9401.1L-4604.6,9401.1z"/>
		</g>
		<g class="st1">
			<path class="st2" d="M-4634.2,9423.7c0.2-0.7,0.5-1.3,1-1.8c0.4-0.5,1-0.9,1.6-1.2c0.6-0.3,1.4-0.4,2.2-0.4
				c0.6,0,1.2,0.1,1.8,0.3c0.6,0.2,1.1,0.5,1.5,0.9c0.4,0.4,0.8,0.8,1,1.4c0.3,0.5,0.4,1.2,0.4,1.8c0,0.7-0.1,1.3-0.3,1.8
				s-0.5,1-0.9,1.3c-0.4,0.4-0.8,0.8-1.3,1.1s-0.9,0.6-1.4,1s-0.9,0.7-1.4,1c-0.5,0.4-0.9,0.8-1.2,1.3h6.6v2.4h-10.3
				c0-0.8,0.1-1.5,0.4-2.1c0.2-0.6,0.5-1.1,1-1.6c0.4-0.5,0.9-0.9,1.4-1.3s1.1-0.8,1.7-1.2c0.3-0.2,0.6-0.4,1-0.7s0.7-0.5,1-0.7
				c0.3-0.3,0.5-0.6,0.7-0.9c0.2-0.3,0.3-0.7,0.3-1.1c0-0.7-0.2-1.2-0.6-1.6c-0.4-0.4-0.9-0.6-1.5-0.6c-0.4,0-0.8,0.1-1.1,0.3
				s-0.5,0.4-0.7,0.8s-0.3,0.7-0.4,1s-0.1,0.8-0.1,1.1h-2.7C-4634.5,9425.1-4634.4,9424.3-4634.2,9423.7z"/>
			<path class="st2" d="M-4623.3,9424c0.3-0.9,0.6-1.7,1.1-2.2c0.5-0.6,1-1,1.6-1.2c0.6-0.2,1.3-0.4,2-0.4c0.7,0,1.4,0.1,2,0.4
				c0.6,0.2,1.2,0.6,1.6,1.2c0.5,0.6,0.8,1.3,1.1,2.2c0.3,0.9,0.4,2.1,0.4,3.4c0,1.4-0.1,2.6-0.4,3.5c-0.3,0.9-0.6,1.7-1.1,2.2
				c-0.5,0.6-1,1-1.6,1.2c-0.6,0.2-1.3,0.4-2,0.4c-0.7,0-1.4-0.1-2-0.4c-0.6-0.2-1.2-0.6-1.6-1.2c-0.5-0.6-0.8-1.3-1.1-2.2
				c-0.3-0.9-0.4-2.1-0.4-3.5C-4623.7,9426.1-4623.6,9424.9-4623.3,9424z M-4620.8,9428.9c0,0.6,0.1,1.1,0.2,1.6
				c0.1,0.5,0.4,1,0.7,1.3c0.3,0.4,0.7,0.6,1.3,0.6c0.6,0,1-0.2,1.4-0.6c0.3-0.4,0.5-0.8,0.7-1.3c0.1-0.5,0.2-1.1,0.2-1.6
				c0-0.6,0-1,0-1.4c0-0.2,0-0.5,0-0.9c0-0.3,0-0.7-0.1-1.1c0-0.4-0.1-0.7-0.2-1.1s-0.2-0.7-0.4-1c-0.2-0.3-0.4-0.5-0.7-0.7
				c-0.3-0.2-0.6-0.3-1-0.3s-0.7,0.1-1,0.3c-0.3,0.2-0.5,0.4-0.6,0.7c-0.2,0.3-0.3,0.6-0.4,1s-0.2,0.7-0.2,1.1
				c0,0.4-0.1,0.7-0.1,1.1c0,0.3,0,0.6,0,0.9C-4620.9,9427.8-4620.8,9428.3-4620.8,9428.9z"/>
			<path class="st2" d="M-4608,9434.5v-9.1h-3.5v-2.1c0.5,0,1,0,1.4-0.1s0.9-0.2,1.2-0.5c0.4-0.2,0.7-0.5,0.9-0.9
				c0.3-0.4,0.4-0.8,0.5-1.3h2.3v14H-4608z"/>
			<path class="st2" d="M-4600.6,9422.4c0.3-0.5,0.6-0.9,1.1-1.2c0.4-0.3,0.9-0.6,1.5-0.7c0.6-0.2,1.1-0.2,1.7-0.2
				c0.9,0,1.6,0.1,2.2,0.4c0.6,0.3,1.1,0.6,1.5,1s0.6,0.8,0.8,1.2c0.2,0.4,0.2,0.8,0.2,1.2c0,0.7-0.2,1.3-0.5,1.8
				c-0.3,0.5-0.8,0.9-1.5,1.1v0c0.8,0.2,1.5,0.6,1.9,1.2c0.5,0.6,0.7,1.3,0.7,2.2c0,0.7-0.1,1.4-0.4,1.9c-0.3,0.5-0.7,1-1.2,1.4
				c-0.5,0.4-1.1,0.6-1.7,0.8c-0.6,0.2-1.3,0.3-1.9,0.3c-0.7,0-1.3-0.1-2-0.2c-0.6-0.2-1.2-0.4-1.7-0.8c-0.5-0.4-0.9-0.8-1.2-1.4
				s-0.5-1.2-0.5-2c0-0.9,0.2-1.6,0.7-2.2c0.5-0.6,1.1-1,1.9-1.2v0c-0.7-0.2-1.2-0.5-1.5-1.1c-0.3-0.5-0.5-1.1-0.5-1.8
				C-4601,9423.4-4600.9,9422.9-4600.6,9422.4z M-4598.6,9431.2c0.1,0.3,0.3,0.5,0.5,0.8s0.5,0.4,0.8,0.5s0.6,0.2,1,0.2
				c0.3,0,0.7-0.1,1-0.2c0.3-0.1,0.5-0.3,0.8-0.5c0.2-0.2,0.4-0.5,0.5-0.8c0.1-0.3,0.2-0.6,0.2-1c0-0.3-0.1-0.6-0.2-0.9
				s-0.3-0.5-0.5-0.7c-0.2-0.2-0.5-0.4-0.8-0.5s-0.6-0.2-0.9-0.2c-0.7,0-1.3,0.2-1.8,0.6c-0.5,0.4-0.7,0.9-0.7,1.6
				C-4598.8,9430.6-4598.7,9430.9-4598.6,9431.2z M-4597.8,9425.7c0.4,0.3,0.9,0.5,1.5,0.5c0.6,0,1.1-0.2,1.5-0.5
				c0.4-0.3,0.6-0.8,0.6-1.4c0-0.2,0-0.4-0.1-0.6c-0.1-0.2-0.2-0.4-0.3-0.6c-0.2-0.2-0.4-0.4-0.6-0.5c-0.3-0.1-0.6-0.2-1.1-0.2
				c-0.3,0-0.5,0-0.8,0.1c-0.3,0.1-0.5,0.2-0.7,0.4c-0.2,0.2-0.4,0.4-0.5,0.6s-0.2,0.5-0.2,0.8
				C-4598.4,9424.9-4598.2,9425.4-4597.8,9425.7z"/>
		</g>
	</g>
	<g>
		<line class="st3" x1="-4728.5" y1="9900" x2="-4728.5" y2="9920"/>
	</g>
	<g>
		<line class="st3" x1="-4728.5" y1="9731" x2="-4728.5" y2="9801"/>
	</g>
</g>
</svg>
