<?xml version="1.0" encoding="utf-8"?>
<!-- Generator: Adobe Illustrator 21.1.0, SVG Export Plug-In . SVG Version: 6.00 Build 0)  -->
<svg version="1.1" id="Layer_1" xmlns="http://www.w3.org/2000/svg" xmlns:xlink="http://www.w3.org/1999/xlink" x="0px" y="0px"
	 viewBox="0 0 1012 835" style="enable-background:new 0 0 1012 835;" xml:space="preserve">
<style type="text/css">
	.st0{fill:none;stroke:#043275;stroke-width:4;}
	.st1{fill:#FFFFFF;}
	.st2{fill:#043275;}
	.st3{enable-background:new    ;}
	.st4{fill:#676767;}
</style>
<g transform="translate(1171 -7733)">
	<g>
		<line class="st0" x1="-663.5" y1="7866.5" x2="-663.5" y2="7938.5"/>
	</g>
	<g>
		<line class="st0" x1="-663.5" y1="8033.5" x2="-663.5" y2="8105.5"/>
	</g>
	<g>
		<line class="st0" x1="-663.5" y1="8202.5" x2="-663.5" y2="8274.5"/>
	</g>
	<g>
		<line class="st0" x1="-663.5" y1="8378.5" x2="-663.5" y2="8450.5"/>
	</g>
	<g>
		<path class="st1" d="M-1154,7733h350c9.4,0,17,7.6,17,17v143c0,9.4-7.6,17-17,17h-350c-9.4,0-17-7.6-17-17v-143
			C-1171,7740.6-1163.4,7733-1154,7733z"/>
	</g>
	<g>
		<path class="st1" d="M-1154,8077h350c9.4,0,17,7.6,17,17v143c0,9.4-7.6,17-17,17h-350c-9.4,0-17-7.6-17-17v-143
			C-1171,8084.6-1163.4,8077-1154,8077z"/>
	</g>
	<g>
		<path class="st1" d="M-1154,8449h350c9.4,0,17,7.6,17,17v85c0,9.4-7.6,17-17,17h-350c-9.4,0-17-7.6-17-17v-85
			C-1171,8456.6-1163.4,8449-1154,8449z"/>
	</g>
	<g>
		<path class="st1" d="M-526,7918h350c9.4,0,17,7.6,17,17v110c0,9.4-7.6,17-17,17h-350c-9.4,0-17-7.6-17-17v-110
			C-543,7925.6-535.4,7918-526,7918z"/>
	</g>
	<g>
		<path class="st1" d="M-526,8257h350c9.4,0,17,7.6,17,17v110c0,9.4-7.6,17-17,17h-350c-9.4,0-17-7.6-17-17v-110
			C-543,8264.6-535.4,8257-526,8257z"/>
	</g>
	<g>
		<path class="st2" d="M-787.3,7826.8c-5.7,0-10.3-4.6-10.3-10.3s4.6-10.3,10.3-10.3s10.3,4.6,10.3,10.3
			C-777,7822.2-781.6,7826.8-787.3,7826.8z M-787.3,7808.2c-4.6,0-8.3,3.7-8.3,8.3s3.7,8.3,8.3,8.3c4.6,0,8.3-3.7,8.3-8.3
			C-779,7811.9-782.7,7808.2-787.3,7808.2z M-787.3,7823.8c-4,0-7.3-3.3-7.3-7.3s3.3-7.3,7.3-7.3s7.3,3.3,7.3,7.3
			C-780,7820.5-783.3,7823.8-787.3,7823.8L-787.3,7823.8z"/>
	</g>
	<g>
		<path class="st2" d="M-787.3,8170.8c-5.7,0-10.3-4.6-10.3-10.3s4.6-10.3,10.3-10.3s10.3,4.6,10.3,10.3
			C-777,8166.2-781.6,8170.8-787.3,8170.8z M-787.3,8152.2c-4.6,0-8.3,3.7-8.3,8.3s3.7,8.3,8.3,8.3c4.6,0,8.3-3.7,8.3-8.3
			C-779,8155.9-782.7,8152.2-787.3,8152.2z M-787.3,8167.8c-4,0-7.3-3.3-7.3-7.3c0-4,3.3-7.3,7.3-7.3s7.3,3.3,7.3,7.3
			C-780,8164.5-783.3,8167.8-787.3,8167.8L-787.3,8167.8z"/>
	</g>
	<g>
		<path class="st2" d="M-787.3,8518.8c-5.7,0-10.3-4.6-10.3-10.3s4.6-10.3,10.3-10.3s10.3,4.6,10.3,10.3
			C-777,8514.2-781.6,8518.8-787.3,8518.8z M-787.3,8500.2c-4.6,0-8.3,3.7-8.3,8.3s3.7,8.3,8.3,8.3c4.6,0,8.3-3.7,8.3-8.3
			C-779,8503.9-782.7,8500.2-787.3,8500.2z M-787.3,8515.8c-4,0-7.3-3.3-7.3-7.3c0-4,3.3-7.3,7.3-7.3s7.3,3.3,7.3,7.3
			C-780,8512.5-783.3,8515.8-787.3,8515.8L-787.3,8515.8z"/>
	</g>
	<g>
		<path class="st2" d="M-543.3,7980c5.7,0,10.3,4.6,10.3,10.3c0,5.7-4.6,10.3-10.3,10.3s-10.3-4.6-10.3-10.3
			C-553.6,7984.6-549,7980-543.3,7980z M-543.3,7998.6c4.6,0,8.3-3.7,8.3-8.3s-3.7-8.3-8.3-8.3c-4.6,0-8.3,3.7-8.3,8.3
			C-551.6,7994.9-547.9,7998.6-543.3,7998.6z M-543.3,7983c4,0,7.3,3.3,7.3,7.3s-3.3,7.3-7.3,7.3s-7.3-3.3-7.3-7.3
			C-550.6,7986.3-547.3,7983-543.3,7983L-543.3,7983z"/>
	</g>
	<g>
		<path class="st2" d="M-543.3,8319c5.7,0,10.3,4.6,10.3,10.3s-4.6,10.3-10.3,10.3s-10.3-4.6-10.3-10.3
			C-553.6,8323.6-549,8319-543.3,8319z M-543.3,8337.6c4.6,0,8.3-3.7,8.3-8.3s-3.7-8.3-8.3-8.3c-4.6,0-8.3,3.7-8.3,8.3
			C-551.6,8333.9-547.9,8337.6-543.3,8337.6z M-543.3,8322c4,0,7.3,3.3,7.3,7.3s-3.3,7.3-7.3,7.3s-7.3-3.3-7.3-7.3
			C-550.6,8325.3-547.3,8322-543.3,8322L-543.3,8322z"/>
	</g>
	<g class="st3">
		<path class="st4" d="M-772.6,7814.8v2.2h-2.2v-2.2H-772.6z M-765.9,7814.8v2.2h-2.2v-2.2H-765.9z M-759.2,7814.8v2.2h-2.2v-2.2
			H-759.2z"/>
		<path class="st4" d="M-752.6,7814.8v2.2h-2.2v-2.2H-752.6z M-745.9,7814.8v2.2h-2.2v-2.2H-745.9z M-739.2,7814.8v2.2h-2.2v-2.2
			H-739.2z"/>
		<path class="st4" d="M-732.6,7814.8v2.2h-2.2v-2.2H-732.6z M-725.9,7814.8v2.2h-2.2v-2.2H-725.9z M-719.2,7814.8v2.2h-2.2v-2.2
			H-719.2z"/>
	</g>
	<g class="st3">
		<path class="st4" d="M-772.6,8158.8v2.2h-2.2v-2.2H-772.6z M-765.9,8158.8v2.2h-2.2v-2.2H-765.9z M-759.2,8158.8v2.2h-2.2v-2.2
			H-759.2z"/>
		<path class="st4" d="M-752.6,8158.8v2.2h-2.2v-2.2H-752.6z M-745.9,8158.8v2.2h-2.2v-2.2H-745.9z M-739.2,8158.8v2.2h-2.2v-2.2
			H-739.2z"/>
		<path class="st4" d="M-732.6,8158.8v2.2h-2.2v-2.2H-732.6z M-725.9,8158.8v2.2h-2.2v-2.2H-725.9z M-719.2,8158.8v2.2h-2.2v-2.2
			H-719.2z"/>
	</g>
	<g class="st3">
		<path class="st4" d="M-772.6,8506.8v2.2h-2.2v-2.2H-772.6z M-765.9,8506.8v2.2h-2.2v-2.2H-765.9z M-759.2,8506.8v2.2h-2.2v-2.2
			H-759.2z"/>
		<path class="st4" d="M-752.6,8506.8v2.2h-2.2v-2.2H-752.6z M-745.9,8506.8v2.2h-2.2v-2.2H-745.9z M-739.2,8506.8v2.2h-2.2v-2.2
			H-739.2z"/>
		<path class="st4" d="M-732.6,8506.8v2.2h-2.2v-2.2H-732.6z M-725.9,8506.8v2.2h-2.2v-2.2H-725.9z M-719.2,8506.8v2.2h-2.2v-2.2
			H-719.2z"/>
	</g>
	<g class="st3">
		<path class="st4" d="M-571.4,7992v-2.2h2.2v2.2H-571.4z M-564.7,7992v-2.2h2.2v2.2H-564.7z M-558,7992v-2.2h2.2v2.2H-558z"/>
		<path class="st4" d="M-591.4,7992v-2.2h2.2v2.2H-591.4z M-584.7,7992v-2.2h2.2v2.2H-584.7z M-578,7992v-2.2h2.2v2.2H-578z"/>
		<path class="st4" d="M-611.4,7992v-2.2h2.2v2.2H-611.4z M-604.7,7992v-2.2h2.2v2.2H-604.7z M-598,7992v-2.2h2.2v2.2H-598z"/>
	</g>
	<g class="st3">
		<path class="st4" d="M-571.4,8331v-2.2h2.2v2.2H-571.4z M-564.7,8331v-2.2h2.2v2.2H-564.7z M-558,8331v-2.2h2.2v2.2H-558z"/>
		<path class="st4" d="M-591.4,8331v-2.2h2.2v2.2H-591.4z M-584.7,8331v-2.2h2.2v2.2H-584.7z M-578,8331v-2.2h2.2v2.2H-578z"/>
		<path class="st4" d="M-611.4,8331v-2.2h2.2v2.2H-611.4z M-604.7,8331v-2.2h2.2v2.2H-604.7z M-598,8331v-2.2h2.2v2.2H-598z"/>
	</g>
	<g>
		<path class="st2" d="M-664.6,7866.9c-10.2,0-20.3-3-28.7-8.8c-8.3-5.6-14.7-13.4-18.6-22.6c-6.8-16-5-34.3,4.7-48.7
			c5.6-8.3,13.4-14.7,22.6-18.6c16-6.8,34.3-5,48.7,4.7c8.3,5.6,14.7,13.4,18.6,22.6c6.8,16,5,34.3-4.7,48.7
			c-5.6,8.3-13.4,14.7-22.6,18.6C-650.9,7865.5-657.7,7866.9-664.6,7866.9z M-664.6,7770c-9.1,0-17.9,2.7-25.4,7.8
			c-7.3,4.9-13,11.9-16.5,20c-6,14.1-4.4,30.4,4.2,43.1c4.9,7.3,11.9,13,20,16.5c14.1,6,30.4,4.4,43.1-4.2c7.3-4.9,13-11.9,16.5-20
			c6-14.1,4.4-30.4-4.2-43.1c-4.9-7.3-11.9-13-20-16.5C-652.5,7771.3-658.5,7770-664.6,7770z M-664.6,7858.6c-8.6,0-17-2.6-24.1-7.4
			c-6.9-4.7-12.4-11.3-15.6-19c-5.7-13.4-4.2-28.8,4-40.9c4.7-6.9,11.3-12.4,19-15.6c13.4-5.7,28.8-4.2,40.9,4
			c6.9,4.7,12.4,11.3,15.6,19c5.7,13.4,4.2,28.8-4,40.9c-4.7,6.9-11.3,12.4-19,15.6C-653.1,7857.5-658.8,7858.6-664.6,7858.6z"/>
	</g>
	<g>
		<path class="st2" d="M-664.6,8038.8c-10.2,0-20.3-3-28.7-8.8c-8.3-5.6-14.7-13.4-18.6-22.6c-6.8-16-5-34.3,4.7-48.7
			c5.6-8.3,13.4-14.7,22.6-18.6c16-6.8,34.3-5,48.7,4.7c8.3,5.6,14.7,13.4,18.6,22.6c6.8,16,5,34.3-4.7,48.7
			c-5.6,8.3-13.4,14.7-22.6,18.6C-650.9,8037.4-657.7,8038.8-664.6,8038.8z M-664.6,7941.9c-9.1,0-17.9,2.7-25.4,7.8
			c-7.3,4.9-13,11.9-16.5,20c-6,14.1-4.4,30.4,4.2,43.1c4.9,7.3,11.9,13,20,16.5c14.1,6,30.4,4.4,43.1-4.2c7.3-4.9,13-11.9,16.5-20
			c6-14.1,4.4-30.4-4.2-43.1c-4.9-7.3-11.9-13-20-16.5C-652.5,7943.1-658.5,7941.9-664.6,7941.9z M-664.6,8030.5
			c-8.6,0-17-2.6-24.1-7.4c-6.9-4.7-12.4-11.3-15.6-19c-5.7-13.4-4.2-28.8,4-40.9c4.7-6.9,11.3-12.4,19-15.6
			c13.4-5.7,28.8-4.2,40.9,4c6.9,4.7,12.4,11.3,15.6,19c5.7,13.4,4.2,28.8-4,40.9c-4.7,6.9-11.3,12.4-19,15.6
			C-653.1,8029.4-658.8,8030.5-664.6,8030.5z"/>
	</g>
	<g>
		<path class="st2" d="M-664.6,8205.8c-10.2,0-20.3-3-28.7-8.8c-8.3-5.6-14.7-13.4-18.6-22.6c-6.8-16-5-34.3,4.7-48.7
			c5.6-8.3,13.4-14.7,22.6-18.6c16-6.8,34.3-5,48.7,4.7c8.3,5.6,14.7,13.4,18.6,22.6c6.8,16,5,34.3-4.7,48.7
			c-5.6,8.3-13.4,14.7-22.6,18.6C-650.9,8204.4-657.7,8205.8-664.6,8205.8z M-664.6,8108.9c-9.1,0-17.9,2.7-25.4,7.8
			c-7.3,4.9-13,11.9-16.5,20c-6,14.1-4.4,30.4,4.2,43.1c4.9,7.3,11.9,13,20,16.5c14.1,6,30.4,4.4,43.1-4.2c7.3-4.9,13-11.9,16.5-20
			c6-14.1,4.4-30.4-4.2-43.1c-4.9-7.3-11.9-13-20-16.5C-652.5,8110.1-658.5,8108.9-664.6,8108.9z M-664.6,8197.5
			c-8.6,0-17-2.6-24.1-7.4c-6.9-4.7-12.4-11.3-15.6-19c-5.7-13.4-4.2-28.8,4-40.9c4.7-6.9,11.3-12.4,19-15.6
			c13.4-5.7,28.8-4.2,40.9,4c6.9,4.7,12.4,11.3,15.6,19c5.7,13.4,4.2,28.8-4,40.9c-4.7,6.9-11.3,12.4-19,15.6
			C-653.1,8196.4-658.8,8197.5-664.6,8197.5z"/>
	</g>
	<g>
		<path class="st2" d="M-664.6,8377.8c-10.2,0-20.3-3-28.7-8.8c-8.3-5.6-14.7-13.4-18.6-22.6c-6.8-16-5-34.3,4.7-48.7
			c5.6-8.3,13.4-14.7,22.6-18.6c16-6.8,34.3-5,48.7,4.7c8.3,5.6,14.7,13.4,18.6,22.6c6.8,16,5,34.3-4.7,48.7
			c-5.6,8.3-13.4,14.7-22.6,18.6C-650.9,8376.4-657.7,8377.8-664.6,8377.8z M-664.6,8280.9c-9.1,0-17.9,2.7-25.4,7.8
			c-7.3,4.9-13,11.9-16.5,20c-6,14.1-4.4,30.4,4.2,43.1c4.9,7.3,11.9,13,20,16.5c14.1,6,30.4,4.4,43.1-4.2c7.3-4.9,13-11.9,16.5-20
			c6-14.2,4.4-30.4-4.2-43.1c-4.9-7.3-11.9-13-20-16.5C-652.5,8282.1-658.5,8280.9-664.6,8280.9z M-664.6,8369.5
			c-8.6,0-17-2.6-24.1-7.4c-6.9-4.7-12.4-11.3-15.6-19c-5.7-13.4-4.2-28.8,4-40.9c4.7-6.9,11.3-12.4,19-15.6
			c13.4-5.7,28.8-4.2,40.9,4c6.9,4.7,12.4,11.3,15.6,19c5.7,13.4,4.2,28.8-4,40.9c-4.7,6.9-11.3,12.4-19,15.6
			C-653.1,8368.4-658.8,8369.5-664.6,8369.5z"/>
	</g>
	<g>
		<path class="st2" d="M-664.6,8553.8c-10.2,0-20.3-3-28.7-8.8c-8.3-5.6-14.7-13.4-18.6-22.6c-6.8-16-5-34.3,4.7-48.7
			c5.6-8.3,13.4-14.7,22.6-18.6c16-6.8,34.3-5,48.7,4.7c8.3,5.6,14.7,13.4,18.6,22.6c6.8,16,5,34.3-4.7,48.7
			c-5.6,8.3-13.4,14.7-22.6,18.6C-650.9,8552.4-657.7,8553.8-664.6,8553.8z M-664.6,8456.9c-9.1,0-17.9,2.7-25.4,7.8
			c-7.3,4.9-13,11.9-16.5,20c-6,14.1-4.4,30.4,4.2,43.1c4.9,7.3,11.9,13,20,16.5c14.1,6,30.4,4.4,43.1-4.2c7.3-4.9,13-11.9,16.5-20
			c6-14.2,4.4-30.4-4.2-43.1c-4.9-7.3-11.9-13-20-16.5C-652.5,8458.1-658.5,8456.9-664.6,8456.9z M-664.6,8545.5
			c-8.6,0-17-2.6-24.1-7.4c-6.9-4.7-12.4-11.3-15.6-19c-5.7-13.4-4.2-28.8,4-40.9c4.7-6.9,11.3-12.4,19-15.6
			c13.4-5.7,28.8-4.2,40.9,4c6.9,4.7,12.4,11.3,15.6,19c5.7,13.4,4.2,28.8-4,40.9c-4.7,6.9-11.3,12.4-19,15.6
			C-653.1,8544.4-658.8,8545.5-664.6,8545.5z"/>
	</g>
	<g class="st3">
		<path class="st1" d="M-675.2,7809c-0.1,0.6-0.3,1.1-0.6,1.6c-0.3,0.5-0.8,0.9-1.4,1.2c-0.6,0.3-1.5,0.5-2.5,0.5
			c-0.6,0-1.2-0.1-1.7-0.2c-0.6-0.2-1.1-0.4-1.5-0.8s-0.8-0.8-1.1-1.4c-0.3-0.6-0.4-1.2-0.4-2v-1.2h2.8v0.6c0,0.3,0,0.7,0.1,1
			c0.1,0.3,0.1,0.5,0.3,0.8c0.1,0.2,0.3,0.4,0.5,0.5c0.2,0.1,0.5,0.2,0.9,0.2c0.4,0,0.7-0.1,1-0.2c0.2-0.1,0.4-0.3,0.5-0.6
			c0.1-0.2,0.2-0.5,0.2-0.8c0-0.3,0-0.5,0-0.8v-9.6h3.1v9.8C-675.1,7808-675.1,7808.5-675.2,7809z"/>
		<path class="st1" d="M-665.2,7797.7l5.3,14.3h-3.3l-1.1-3.2h-5.3l-1.1,3.2h-3.2l5.4-14.3H-665.2z M-665,7806.5l-1.8-5.2h0
			l-1.9,5.2H-665z"/>
		<path class="st1" d="M-655.5,7797.7l6,9.6h0v-9.6h2.9v14.3h-3.1l-5.9-9.6h0v9.6h-2.9v-14.3H-655.5z"/>
	</g>
	<g class="st3">
		<path class="st1" d="M-686.2,7824.2c0.2-0.7,0.5-1.3,1-1.8c0.4-0.5,1-0.9,1.6-1.2c0.6-0.3,1.4-0.4,2.2-0.4c0.6,0,1.2,0.1,1.8,0.3
			c0.6,0.2,1.1,0.5,1.5,0.9c0.4,0.4,0.8,0.8,1,1.4c0.3,0.5,0.4,1.2,0.4,1.8c0,0.7-0.1,1.3-0.3,1.8s-0.5,1-0.9,1.3
			c-0.4,0.4-0.8,0.8-1.3,1.1c-0.5,0.3-1,0.6-1.4,1c-0.5,0.3-0.9,0.7-1.4,1c-0.5,0.4-0.9,0.8-1.2,1.3h6.6v2.4h-10.3
			c0-0.8,0.1-1.5,0.4-2.1c0.2-0.6,0.5-1.1,1-1.6c0.4-0.5,0.9-0.9,1.4-1.3s1.1-0.8,1.7-1.2c0.3-0.2,0.6-0.4,1-0.7s0.7-0.5,1-0.7
			c0.3-0.3,0.5-0.6,0.7-0.9s0.3-0.7,0.3-1.1c0-0.7-0.2-1.2-0.6-1.6c-0.4-0.4-0.9-0.6-1.5-0.6c-0.4,0-0.8,0.1-1.1,0.3
			c-0.3,0.2-0.5,0.4-0.7,0.8c-0.2,0.3-0.3,0.7-0.4,1s-0.1,0.8-0.1,1.1h-2.7C-686.5,7825.6-686.4,7824.8-686.2,7824.2z"/>
		<path class="st1" d="M-675.3,7824.5c0.3-0.9,0.6-1.7,1.1-2.2c0.5-0.6,1-1,1.6-1.2s1.3-0.4,2-0.4c0.7,0,1.4,0.1,2,0.4
			s1.2,0.6,1.6,1.2c0.5,0.6,0.8,1.3,1.1,2.2s0.4,2.1,0.4,3.4c0,1.4-0.1,2.6-0.4,3.5c-0.3,0.9-0.6,1.7-1.1,2.2c-0.5,0.6-1,1-1.6,1.2
			c-0.6,0.2-1.3,0.4-2,0.4c-0.7,0-1.3-0.1-2-0.4c-0.6-0.2-1.2-0.6-1.6-1.2c-0.5-0.6-0.8-1.3-1.1-2.2c-0.3-0.9-0.4-2.1-0.4-3.5
			C-675.7,7826.6-675.6,7825.4-675.3,7824.5z M-672.8,7829.4c0,0.6,0.1,1.1,0.2,1.6c0.1,0.5,0.4,1,0.7,1.3c0.3,0.4,0.7,0.6,1.3,0.6
			c0.6,0,1-0.2,1.4-0.6c0.3-0.4,0.5-0.8,0.7-1.3s0.2-1.1,0.2-1.6c0-0.6,0-1,0-1.4c0-0.2,0-0.5,0-0.9c0-0.3,0-0.7-0.1-1.1
			c0-0.4-0.1-0.7-0.2-1.1s-0.2-0.7-0.4-1c-0.2-0.3-0.4-0.5-0.7-0.7c-0.3-0.2-0.6-0.3-1-0.3s-0.7,0.1-1,0.3c-0.3,0.2-0.5,0.4-0.6,0.7
			c-0.2,0.3-0.3,0.6-0.4,1c-0.1,0.4-0.2,0.7-0.2,1.1c0,0.4-0.1,0.7-0.1,1.1c0,0.3,0,0.6,0,0.9
			C-672.9,7828.3-672.8,7828.8-672.8,7829.4z"/>
		<path class="st1" d="M-660,7835v-9.1h-3.5v-2.1c0.5,0,1,0,1.4-0.1s0.9-0.2,1.2-0.5c0.4-0.2,0.7-0.5,0.9-0.9
			c0.3-0.4,0.4-0.8,0.5-1.3h2.3v14H-660z"/>
		<path class="st1" d="M-652.6,7822.9c0.3-0.5,0.6-0.9,1.1-1.2c0.4-0.3,0.9-0.6,1.5-0.7c0.6-0.2,1.1-0.2,1.7-0.2
			c0.9,0,1.6,0.1,2.2,0.4c0.6,0.3,1.1,0.6,1.5,1c0.4,0.4,0.6,0.8,0.8,1.2c0.2,0.4,0.2,0.8,0.2,1.2c0,0.7-0.2,1.3-0.5,1.8
			c-0.3,0.5-0.9,0.9-1.5,1.1v0c0.8,0.2,1.5,0.6,1.9,1.2c0.5,0.6,0.7,1.3,0.7,2.2c0,0.7-0.2,1.4-0.5,1.9s-0.7,1-1.2,1.4
			c-0.5,0.4-1.1,0.6-1.7,0.8c-0.6,0.2-1.3,0.3-1.9,0.3c-0.7,0-1.3-0.1-2-0.2c-0.6-0.2-1.2-0.4-1.7-0.8c-0.5-0.4-0.9-0.8-1.2-1.4
			s-0.5-1.2-0.5-2c0-0.9,0.2-1.6,0.7-2.2c0.5-0.6,1.1-1,2-1.2v0c-0.7-0.2-1.2-0.5-1.5-1.1c-0.3-0.5-0.5-1.1-0.5-1.8
			C-653,7823.9-652.9,7823.4-652.6,7822.9z M-650.6,7831.7c0.1,0.3,0.3,0.5,0.5,0.8s0.5,0.4,0.8,0.5s0.6,0.2,1,0.2
			c0.3,0,0.7-0.1,1-0.2c0.3-0.1,0.5-0.3,0.8-0.5s0.4-0.5,0.5-0.8c0.1-0.3,0.2-0.6,0.2-1c0-0.3-0.1-0.6-0.2-0.9s-0.3-0.5-0.5-0.7
			c-0.2-0.2-0.5-0.4-0.8-0.5c-0.3-0.1-0.6-0.2-0.9-0.2c-0.7,0-1.3,0.2-1.8,0.6c-0.5,0.4-0.7,0.9-0.7,1.6
			C-650.8,7831.1-650.7,7831.4-650.6,7831.7z M-649.8,7826.2c0.4,0.3,0.9,0.5,1.5,0.5c0.6,0,1.1-0.2,1.5-0.5
			c0.4-0.3,0.6-0.8,0.6-1.4c0-0.2,0-0.4-0.1-0.6c-0.1-0.2-0.2-0.4-0.3-0.6c-0.2-0.2-0.4-0.4-0.6-0.5c-0.3-0.1-0.6-0.2-1.1-0.2
			c-0.3,0-0.6,0-0.8,0.1s-0.5,0.2-0.7,0.4c-0.2,0.2-0.4,0.4-0.5,0.6s-0.2,0.5-0.2,0.8C-650.4,7825.4-650.2,7825.9-649.8,7826.2z"/>
	</g>
	<g class="st3">
		<path class="st1" d="M-667.1,7982.5c-0.9,0.5-2.1,0.8-3.5,0.8c-1.1,0-2.1-0.2-2.9-0.6c-0.9-0.4-1.6-0.9-2.2-1.6
			c-0.6-0.7-1.1-1.4-1.4-2.3c-0.3-0.9-0.5-1.9-0.5-2.9c0-1.1,0.2-2.1,0.5-3c0.3-0.9,0.8-1.7,1.4-2.4c0.6-0.7,1.3-1.2,2.2-1.6
			c0.9-0.4,1.9-0.6,2.9-0.6c1.1,0,2.1,0.2,3,0.6c0.9,0.4,1.6,0.9,2.2,1.6c0.6,0.7,1.1,1.5,1.4,2.4c0.3,0.9,0.5,1.9,0.5,3
			c0,1-0.2,2-0.5,2.9c-0.3,0.9-0.8,1.7-1.4,2.4l1.8,1.6l-1.5,1.5L-667.1,7982.5z M-667.6,7979.2c0.3-0.4,0.5-0.8,0.6-1.3
			s0.2-1.2,0.2-1.9c0-0.6-0.1-1.2-0.2-1.8c-0.1-0.6-0.4-1.1-0.7-1.6s-0.7-0.8-1.2-1.1c-0.5-0.3-1.1-0.4-1.8-0.4
			c-0.7,0-1.3,0.1-1.8,0.4c-0.5,0.3-0.9,0.6-1.2,1.1s-0.5,1-0.7,1.6c-0.1,0.6-0.2,1.2-0.2,1.8c0,0.6,0.1,1.2,0.2,1.7
			c0.1,0.6,0.4,1.1,0.7,1.5c0.3,0.5,0.7,0.8,1.2,1.1c0.5,0.3,1.1,0.4,1.8,0.4c0.3,0,0.6,0,0.8,0c0.2,0,0.3-0.1,0.5-0.1l-1.3-1.2
			l1.5-1.6L-667.6,7979.2z"/>
		<path class="st1" d="M-657.8,7983v-9.1h-3.5v-2.1c0.5,0,1,0,1.4-0.1s0.9-0.2,1.2-0.5c0.4-0.2,0.7-0.5,0.9-0.9
			c0.3-0.4,0.4-0.8,0.5-1.3h2.3v14H-657.8z"/>
	</g>
	<g class="st3">
		<path class="st1" d="M-686.2,7995.2c0.2-0.7,0.5-1.3,1-1.8c0.4-0.5,1-0.9,1.6-1.2c0.6-0.3,1.4-0.4,2.2-0.4c0.6,0,1.2,0.1,1.8,0.3
			c0.6,0.2,1.1,0.5,1.5,0.9c0.4,0.4,0.8,0.8,1,1.4c0.3,0.5,0.4,1.2,0.4,1.8c0,0.7-0.1,1.3-0.3,1.8s-0.5,1-0.9,1.3
			c-0.4,0.4-0.8,0.8-1.3,1.1c-0.5,0.3-1,0.6-1.4,1c-0.5,0.3-0.9,0.7-1.4,1c-0.5,0.4-0.9,0.8-1.2,1.3h6.6v2.4h-10.3
			c0-0.8,0.1-1.5,0.4-2.1c0.2-0.6,0.5-1.1,1-1.6c0.4-0.5,0.9-0.9,1.4-1.3s1.1-0.8,1.7-1.2c0.3-0.2,0.6-0.4,1-0.7s0.7-0.5,1-0.7
			c0.3-0.3,0.5-0.6,0.7-0.9s0.3-0.7,0.3-1.1c0-0.7-0.2-1.2-0.6-1.6c-0.4-0.4-0.9-0.6-1.5-0.6c-0.4,0-0.8,0.1-1.1,0.3
			c-0.3,0.2-0.5,0.4-0.7,0.8c-0.2,0.3-0.3,0.7-0.4,1s-0.1,0.8-0.1,1.1h-2.7C-686.5,7996.6-686.4,7995.8-686.2,7995.2z"/>
		<path class="st1" d="M-675.3,7995.5c0.3-0.9,0.6-1.7,1.1-2.2c0.5-0.6,1-1,1.6-1.2s1.3-0.4,2-0.4c0.7,0,1.4,0.1,2,0.4
			s1.2,0.6,1.6,1.2c0.5,0.6,0.8,1.3,1.1,2.2s0.4,2.1,0.4,3.4c0,1.4-0.1,2.6-0.4,3.5c-0.3,0.9-0.6,1.7-1.1,2.2c-0.5,0.6-1,1-1.6,1.2
			c-0.6,0.2-1.3,0.4-2,0.4c-0.7,0-1.3-0.1-2-0.4c-0.6-0.2-1.2-0.6-1.6-1.2c-0.5-0.6-0.8-1.3-1.1-2.2c-0.3-0.9-0.4-2.1-0.4-3.5
			C-675.7,7997.6-675.6,7996.4-675.3,7995.5z M-672.8,8000.4c0,0.6,0.1,1.1,0.2,1.6c0.1,0.5,0.4,1,0.7,1.3c0.3,0.4,0.7,0.6,1.3,0.6
			c0.6,0,1-0.2,1.4-0.6c0.3-0.4,0.5-0.8,0.7-1.3s0.2-1.1,0.2-1.6c0-0.6,0-1,0-1.4c0-0.2,0-0.5,0-0.9c0-0.3,0-0.7-0.1-1.1
			c0-0.4-0.1-0.7-0.2-1.1s-0.2-0.7-0.4-1c-0.2-0.3-0.4-0.5-0.7-0.7c-0.3-0.2-0.6-0.3-1-0.3s-0.7,0.1-1,0.3c-0.3,0.2-0.5,0.4-0.6,0.7
			c-0.2,0.3-0.3,0.6-0.4,1c-0.1,0.4-0.2,0.7-0.2,1.1c0,0.4-0.1,0.7-0.1,1.1c0,0.3,0,0.6,0,0.9
			C-672.9,7999.3-672.8,7999.8-672.8,8000.4z"/>
		<path class="st1" d="M-660,8006v-9.1h-3.5v-2.1c0.5,0,1,0,1.4-0.1s0.9-0.2,1.2-0.5c0.4-0.2,0.7-0.5,0.9-0.9
			c0.3-0.4,0.4-0.8,0.5-1.3h2.3v14H-660z"/>
		<path class="st1" d="M-652.6,7993.9c0.3-0.5,0.6-0.9,1.1-1.2c0.4-0.3,0.9-0.6,1.5-0.7c0.6-0.2,1.1-0.2,1.7-0.2
			c0.9,0,1.6,0.1,2.2,0.4c0.6,0.3,1.1,0.6,1.5,1c0.4,0.4,0.6,0.8,0.8,1.2c0.2,0.4,0.2,0.8,0.2,1.2c0,0.7-0.2,1.3-0.5,1.8
			c-0.3,0.5-0.9,0.9-1.5,1.1v0c0.8,0.2,1.5,0.6,1.9,1.2c0.5,0.6,0.7,1.3,0.7,2.2c0,0.7-0.2,1.4-0.5,1.9s-0.7,1-1.2,1.4
			c-0.5,0.4-1.1,0.6-1.7,0.8c-0.6,0.2-1.3,0.3-1.9,0.3c-0.7,0-1.3-0.1-2-0.2c-0.6-0.2-1.2-0.4-1.7-0.8c-0.5-0.4-0.9-0.8-1.2-1.4
			s-0.5-1.2-0.5-2c0-0.9,0.2-1.6,0.7-2.2c0.5-0.6,1.1-1,2-1.2v0c-0.7-0.2-1.2-0.5-1.5-1.1c-0.3-0.5-0.5-1.1-0.5-1.8
			C-653,7994.9-652.9,7994.4-652.6,7993.9z M-650.6,8002.7c0.1,0.3,0.3,0.5,0.5,0.8s0.5,0.4,0.8,0.5s0.6,0.2,1,0.2
			c0.3,0,0.7-0.1,1-0.2c0.3-0.1,0.5-0.3,0.8-0.5s0.4-0.5,0.5-0.8c0.1-0.3,0.2-0.6,0.2-1c0-0.3-0.1-0.6-0.2-0.9s-0.3-0.5-0.5-0.7
			c-0.2-0.2-0.5-0.4-0.8-0.5c-0.3-0.1-0.6-0.2-0.9-0.2c-0.7,0-1.3,0.2-1.8,0.6c-0.5,0.4-0.7,0.9-0.7,1.6
			C-650.8,8002.1-650.7,8002.4-650.6,8002.7z M-649.8,7997.2c0.4,0.3,0.9,0.5,1.5,0.5c0.6,0,1.1-0.2,1.5-0.5
			c0.4-0.3,0.6-0.8,0.6-1.4c0-0.2,0-0.4-0.1-0.6c-0.1-0.2-0.2-0.4-0.3-0.6c-0.2-0.2-0.4-0.4-0.6-0.5c-0.3-0.1-0.6-0.2-1.1-0.2
			c-0.3,0-0.6,0-0.8,0.1s-0.5,0.2-0.7,0.4c-0.2,0.2-0.4,0.4-0.5,0.6s-0.2,0.5-0.2,0.8C-650.4,7996.4-650.2,7996.9-649.8,7997.2z"/>
	</g>
	<g class="st3">
		<path class="st1" d="M-667.1,8149.5c-0.9,0.5-2.1,0.8-3.5,0.8c-1.1,0-2.1-0.2-2.9-0.6c-0.9-0.4-1.6-0.9-2.2-1.6
			c-0.6-0.7-1.1-1.4-1.4-2.3c-0.3-0.9-0.5-1.9-0.5-2.9c0-1.1,0.2-2.1,0.5-3c0.3-0.9,0.8-1.7,1.4-2.4c0.6-0.7,1.3-1.2,2.2-1.6
			c0.9-0.4,1.9-0.6,2.9-0.6c1.1,0,2.1,0.2,3,0.6c0.9,0.4,1.6,0.9,2.2,1.6c0.6,0.7,1.1,1.5,1.4,2.4c0.3,0.9,0.5,1.9,0.5,3
			c0,1-0.2,2-0.5,2.9c-0.3,0.9-0.8,1.7-1.4,2.4l1.8,1.6l-1.5,1.5L-667.1,8149.5z M-667.6,8146.2c0.3-0.4,0.5-0.8,0.6-1.3
			s0.2-1.2,0.2-1.9c0-0.6-0.1-1.2-0.2-1.8c-0.1-0.6-0.4-1.1-0.7-1.6s-0.7-0.8-1.2-1.1c-0.5-0.3-1.1-0.4-1.8-0.4
			c-0.7,0-1.3,0.1-1.8,0.4c-0.5,0.3-0.9,0.6-1.2,1.1s-0.5,1-0.7,1.6c-0.1,0.6-0.2,1.2-0.2,1.8c0,0.6,0.1,1.2,0.2,1.7
			c0.1,0.6,0.4,1.1,0.7,1.5c0.3,0.5,0.7,0.8,1.2,1.1c0.5,0.3,1.1,0.4,1.8,0.4c0.3,0,0.6,0,0.8,0c0.2,0,0.3-0.1,0.5-0.1l-1.3-1.2
			l1.5-1.6L-667.6,8146.2z"/>
		<path class="st1" d="M-661.8,8139.2c0.2-0.7,0.5-1.3,1-1.8c0.4-0.5,1-0.9,1.6-1.2c0.6-0.3,1.4-0.4,2.2-0.4c0.6,0,1.2,0.1,1.8,0.3
			c0.6,0.2,1.1,0.5,1.5,0.9c0.4,0.4,0.8,0.8,1,1.4c0.3,0.5,0.4,1.2,0.4,1.8c0,0.7-0.1,1.3-0.3,1.8s-0.5,1-0.9,1.3
			c-0.4,0.4-0.8,0.8-1.3,1.1c-0.5,0.3-1,0.6-1.4,1c-0.5,0.3-0.9,0.7-1.4,1c-0.5,0.4-0.9,0.8-1.2,1.3h6.6v2.4h-10.3
			c0-0.8,0.1-1.5,0.4-2.1c0.2-0.6,0.5-1.1,1-1.6c0.4-0.5,0.9-0.9,1.4-1.3s1.1-0.8,1.7-1.2c0.3-0.2,0.6-0.4,1-0.7s0.7-0.5,1-0.7
			c0.3-0.3,0.5-0.6,0.7-0.9s0.3-0.7,0.3-1.1c0-0.7-0.2-1.2-0.6-1.6c-0.4-0.4-0.9-0.6-1.5-0.6c-0.4,0-0.8,0.1-1.1,0.3
			c-0.3,0.2-0.5,0.4-0.7,0.8c-0.2,0.3-0.3,0.7-0.4,1s-0.1,0.8-0.1,1.1h-2.7C-662.1,8140.6-662,8139.8-661.8,8139.2z"/>
	</g>
	<g class="st3">
		<path class="st1" d="M-686.2,8162.2c0.2-0.7,0.5-1.3,1-1.8c0.4-0.5,1-0.9,1.6-1.2c0.6-0.3,1.4-0.4,2.2-0.4c0.6,0,1.2,0.1,1.8,0.3
			c0.6,0.2,1.1,0.5,1.5,0.9c0.4,0.4,0.8,0.8,1,1.4c0.3,0.5,0.4,1.2,0.4,1.8c0,0.7-0.1,1.3-0.3,1.8s-0.5,1-0.9,1.3
			c-0.4,0.4-0.8,0.8-1.3,1.1c-0.5,0.3-1,0.6-1.4,1c-0.5,0.3-0.9,0.7-1.4,1c-0.5,0.4-0.9,0.8-1.2,1.3h6.6v2.4h-10.3
			c0-0.8,0.1-1.5,0.4-2.1c0.2-0.6,0.5-1.1,1-1.6c0.4-0.5,0.9-0.9,1.4-1.3s1.1-0.8,1.7-1.2c0.3-0.2,0.6-0.4,1-0.7s0.7-0.5,1-0.7
			c0.3-0.3,0.5-0.6,0.7-0.9s0.3-0.7,0.3-1.1c0-0.7-0.2-1.2-0.6-1.6c-0.4-0.4-0.9-0.6-1.5-0.6c-0.4,0-0.8,0.1-1.1,0.3
			c-0.3,0.2-0.5,0.4-0.7,0.8c-0.2,0.3-0.3,0.7-0.4,1s-0.1,0.8-0.1,1.1h-2.7C-686.5,8163.6-686.4,8162.8-686.2,8162.2z"/>
		<path class="st1" d="M-675.3,8162.5c0.3-0.9,0.6-1.7,1.1-2.2c0.5-0.6,1-1,1.6-1.2s1.3-0.4,2-0.4c0.7,0,1.4,0.1,2,0.4
			s1.2,0.6,1.6,1.2c0.5,0.6,0.8,1.3,1.1,2.2s0.4,2.1,0.4,3.4c0,1.4-0.1,2.6-0.4,3.5c-0.3,0.9-0.6,1.7-1.1,2.2c-0.5,0.6-1,1-1.6,1.2
			c-0.6,0.2-1.3,0.4-2,0.4c-0.7,0-1.3-0.1-2-0.4c-0.6-0.2-1.2-0.6-1.6-1.2c-0.5-0.6-0.8-1.3-1.1-2.2c-0.3-0.9-0.4-2.1-0.4-3.5
			C-675.7,8164.6-675.6,8163.4-675.3,8162.5z M-672.8,8167.4c0,0.6,0.1,1.1,0.2,1.6c0.1,0.5,0.4,1,0.7,1.3c0.3,0.4,0.7,0.6,1.3,0.6
			c0.6,0,1-0.2,1.4-0.6c0.3-0.4,0.5-0.8,0.7-1.3s0.2-1.1,0.2-1.6c0-0.6,0-1,0-1.4c0-0.2,0-0.5,0-0.9c0-0.3,0-0.7-0.1-1.1
			c0-0.4-0.1-0.7-0.2-1.1s-0.2-0.7-0.4-1c-0.2-0.3-0.4-0.5-0.7-0.7c-0.3-0.2-0.6-0.3-1-0.3s-0.7,0.1-1,0.3c-0.3,0.2-0.5,0.4-0.6,0.7
			c-0.2,0.3-0.3,0.6-0.4,1c-0.1,0.4-0.2,0.7-0.2,1.1c0,0.4-0.1,0.7-0.1,1.1c0,0.3,0,0.6,0,0.9
			C-672.9,8166.3-672.8,8166.8-672.8,8167.4z"/>
		<path class="st1" d="M-660,8173v-9.1h-3.5v-2.1c0.5,0,1,0,1.4-0.1s0.9-0.2,1.2-0.5c0.4-0.2,0.7-0.5,0.9-0.9
			c0.3-0.4,0.4-0.8,0.5-1.3h2.3v14H-660z"/>
		<path class="st1" d="M-652.6,8160.9c0.3-0.5,0.6-0.9,1.1-1.2c0.4-0.3,0.9-0.6,1.5-0.7c0.6-0.2,1.1-0.2,1.7-0.2
			c0.9,0,1.6,0.1,2.2,0.4c0.6,0.3,1.1,0.6,1.5,1c0.4,0.4,0.6,0.8,0.8,1.2c0.2,0.4,0.2,0.8,0.2,1.2c0,0.7-0.2,1.3-0.5,1.8
			c-0.3,0.5-0.9,0.9-1.5,1.1v0c0.8,0.2,1.5,0.6,1.9,1.2c0.5,0.6,0.7,1.3,0.7,2.2c0,0.7-0.2,1.4-0.5,1.9s-0.7,1-1.2,1.4
			c-0.5,0.4-1.1,0.6-1.7,0.8c-0.6,0.2-1.3,0.3-1.9,0.3c-0.7,0-1.3-0.1-2-0.2c-0.6-0.2-1.2-0.4-1.7-0.8c-0.5-0.4-0.9-0.8-1.2-1.4
			s-0.5-1.2-0.5-2c0-0.9,0.2-1.6,0.7-2.2c0.5-0.6,1.1-1,2-1.2v0c-0.7-0.2-1.2-0.5-1.5-1.1c-0.3-0.5-0.5-1.1-0.5-1.8
			C-653,8161.9-652.9,8161.4-652.6,8160.9z M-650.6,8169.7c0.1,0.3,0.3,0.5,0.5,0.8s0.5,0.4,0.8,0.5s0.6,0.2,1,0.2
			c0.3,0,0.7-0.1,1-0.2c0.3-0.1,0.5-0.3,0.8-0.5s0.4-0.5,0.5-0.8c0.1-0.3,0.2-0.6,0.2-1c0-0.3-0.1-0.6-0.2-0.9s-0.3-0.5-0.5-0.7
			c-0.2-0.2-0.5-0.4-0.8-0.5c-0.3-0.1-0.6-0.2-0.9-0.2c-0.7,0-1.3,0.2-1.8,0.6c-0.5,0.4-0.7,0.9-0.7,1.6
			C-650.8,8169.1-650.7,8169.4-650.6,8169.7z M-649.8,8164.2c0.4,0.3,0.9,0.5,1.5,0.5c0.6,0,1.1-0.2,1.5-0.5
			c0.4-0.3,0.6-0.8,0.6-1.4c0-0.2,0-0.4-0.1-0.6c-0.1-0.2-0.2-0.4-0.3-0.6c-0.2-0.2-0.4-0.4-0.6-0.5c-0.3-0.1-0.6-0.2-1.1-0.2
			c-0.3,0-0.6,0-0.8,0.1s-0.5,0.2-0.7,0.4c-0.2,0.2-0.4,0.4-0.5,0.6s-0.2,0.5-0.2,0.8C-650.4,8163.4-650.2,8163.9-649.8,8164.2z"/>
	</g>
	<g class="st3">
		<path class="st1" d="M-667.1,8321.5c-0.9,0.5-2.1,0.8-3.5,0.8c-1.1,0-2.1-0.2-2.9-0.6c-0.9-0.4-1.6-0.9-2.2-1.6
			c-0.6-0.7-1.1-1.4-1.4-2.3c-0.3-0.9-0.5-1.9-0.5-2.9c0-1.1,0.2-2.1,0.5-3c0.3-0.9,0.8-1.7,1.4-2.4c0.6-0.7,1.3-1.2,2.2-1.6
			c0.9-0.4,1.9-0.6,2.9-0.6c1.1,0,2.1,0.2,3,0.6c0.9,0.4,1.6,0.9,2.2,1.6c0.6,0.7,1.1,1.5,1.4,2.4c0.3,0.9,0.5,1.9,0.5,3
			c0,1-0.2,2-0.5,2.9c-0.3,0.9-0.8,1.7-1.4,2.4l1.8,1.6l-1.5,1.5L-667.1,8321.5z M-667.6,8318.2c0.3-0.4,0.5-0.8,0.6-1.3
			s0.2-1.2,0.2-1.9c0-0.6-0.1-1.2-0.2-1.8c-0.1-0.6-0.4-1.1-0.7-1.6s-0.7-0.8-1.2-1.1c-0.5-0.3-1.1-0.4-1.8-0.4
			c-0.7,0-1.3,0.1-1.8,0.4c-0.5,0.3-0.9,0.6-1.2,1.1s-0.5,1-0.7,1.6c-0.1,0.6-0.2,1.2-0.2,1.8c0,0.6,0.1,1.2,0.2,1.7
			c0.1,0.6,0.4,1.1,0.7,1.5c0.3,0.5,0.7,0.8,1.2,1.1c0.5,0.3,1.1,0.4,1.8,0.4c0.3,0,0.6,0,0.8,0c0.2,0,0.3-0.1,0.5-0.1l-1.3-1.2
			l1.5-1.6L-667.6,8318.2z"/>
		<path class="st1" d="M-657.2,8313.7c0.3,0,0.7-0.1,1-0.2c0.3-0.1,0.5-0.3,0.7-0.5s0.3-0.6,0.3-1c0-0.6-0.2-1.1-0.6-1.4
			c-0.4-0.3-0.9-0.5-1.4-0.5c-0.7,0-1.3,0.2-1.6,0.7c-0.4,0.5-0.5,1.1-0.5,1.8h-2.7c0-0.7,0.2-1.4,0.4-2c0.2-0.6,0.6-1.1,1-1.5
			c0.4-0.4,0.9-0.8,1.5-1s1.2-0.4,2-0.4c0.6,0,1.1,0.1,1.7,0.2c0.6,0.2,1.1,0.4,1.5,0.8c0.4,0.3,0.8,0.7,1.1,1.2
			c0.3,0.5,0.4,1,0.4,1.7c0,0.7-0.2,1.3-0.5,1.8c-0.3,0.5-0.8,0.9-1.5,1.1v0c0.8,0.2,1.4,0.5,1.8,1.1c0.4,0.6,0.7,1.3,0.7,2.1
			c0,0.7-0.1,1.4-0.4,2c-0.3,0.6-0.7,1.1-1.1,1.4c-0.5,0.4-1,0.7-1.7,0.9c-0.6,0.2-1.3,0.3-2,0.3c-0.8,0-1.5-0.1-2.2-0.3
			s-1.2-0.6-1.7-1c-0.5-0.4-0.8-1-1-1.6c-0.2-0.6-0.4-1.3-0.3-2.2h2.7c0,0.4,0.1,0.7,0.2,1.1s0.3,0.6,0.5,0.9
			c0.2,0.2,0.5,0.4,0.8,0.6c0.3,0.1,0.7,0.2,1.1,0.2c0.6,0,1.2-0.2,1.6-0.6c0.4-0.4,0.7-0.9,0.7-1.6c0-0.5-0.1-0.9-0.3-1.2
			c-0.2-0.3-0.5-0.5-0.8-0.6s-0.7-0.2-1-0.2c-0.4,0-0.7,0-1.1,0v-2C-657.9,8313.7-657.6,8313.7-657.2,8313.7z"/>
	</g>
	<g class="st3">
		<path class="st1" d="M-686.2,8334.2c0.2-0.7,0.5-1.3,1-1.8c0.4-0.5,1-0.9,1.6-1.2c0.6-0.3,1.4-0.4,2.2-0.4c0.6,0,1.2,0.1,1.8,0.3
			c0.6,0.2,1.1,0.5,1.5,0.9c0.4,0.4,0.8,0.8,1,1.4c0.3,0.5,0.4,1.2,0.4,1.8c0,0.7-0.1,1.3-0.3,1.8s-0.5,1-0.9,1.3
			c-0.4,0.4-0.8,0.8-1.3,1.1c-0.5,0.3-1,0.6-1.4,1c-0.5,0.3-0.9,0.7-1.4,1c-0.5,0.4-0.9,0.8-1.2,1.3h6.6v2.4h-10.3
			c0-0.8,0.1-1.5,0.4-2.1c0.2-0.6,0.5-1.1,1-1.6c0.4-0.5,0.9-0.9,1.4-1.3s1.1-0.8,1.7-1.2c0.3-0.2,0.6-0.4,1-0.7s0.7-0.5,1-0.7
			c0.3-0.3,0.5-0.6,0.7-0.9s0.3-0.7,0.3-1.1c0-0.7-0.2-1.2-0.6-1.6c-0.4-0.4-0.9-0.6-1.5-0.6c-0.4,0-0.8,0.1-1.1,0.3
			c-0.3,0.2-0.5,0.4-0.7,0.8c-0.2,0.3-0.3,0.7-0.4,1s-0.1,0.8-0.1,1.1h-2.7C-686.5,8335.6-686.4,8334.8-686.2,8334.2z"/>
		<path class="st1" d="M-675.3,8334.5c0.3-0.9,0.6-1.7,1.1-2.2c0.5-0.6,1-1,1.6-1.2s1.3-0.4,2-0.4c0.7,0,1.4,0.1,2,0.4
			s1.2,0.6,1.6,1.2c0.5,0.6,0.8,1.3,1.1,2.2s0.4,2.1,0.4,3.4c0,1.4-0.1,2.6-0.4,3.5c-0.3,0.9-0.6,1.7-1.1,2.2c-0.5,0.6-1,1-1.6,1.2
			c-0.6,0.2-1.3,0.4-2,0.4c-0.7,0-1.3-0.1-2-0.4c-0.6-0.2-1.2-0.6-1.6-1.2c-0.5-0.6-0.8-1.3-1.1-2.2c-0.3-0.9-0.4-2.1-0.4-3.5
			C-675.7,8336.6-675.6,8335.4-675.3,8334.5z M-672.8,8339.4c0,0.6,0.1,1.1,0.2,1.6c0.1,0.5,0.4,1,0.7,1.3c0.3,0.4,0.7,0.6,1.3,0.6
			c0.6,0,1-0.2,1.4-0.6c0.3-0.4,0.5-0.8,0.7-1.3s0.2-1.1,0.2-1.6c0-0.6,0-1,0-1.4c0-0.2,0-0.5,0-0.9c0-0.3,0-0.7-0.1-1.1
			c0-0.4-0.1-0.7-0.2-1.1s-0.2-0.7-0.4-1c-0.2-0.3-0.4-0.5-0.7-0.7c-0.3-0.2-0.6-0.3-1-0.3s-0.7,0.1-1,0.3c-0.3,0.2-0.5,0.4-0.6,0.7
			c-0.2,0.3-0.3,0.6-0.4,1c-0.1,0.4-0.2,0.7-0.2,1.1c0,0.4-0.1,0.7-0.1,1.1c0,0.3,0,0.6,0,0.9
			C-672.9,8338.3-672.8,8338.8-672.8,8339.4z"/>
		<path class="st1" d="M-660,8345v-9.1h-3.5v-2.1c0.5,0,1,0,1.4-0.1s0.9-0.2,1.2-0.5c0.4-0.2,0.7-0.5,0.9-0.9
			c0.3-0.4,0.4-0.8,0.5-1.3h2.3v14H-660z"/>
		<path class="st1" d="M-652.6,8332.9c0.3-0.5,0.6-0.9,1.1-1.2c0.4-0.3,0.9-0.6,1.5-0.7c0.6-0.2,1.1-0.2,1.7-0.2
			c0.9,0,1.6,0.1,2.2,0.4c0.6,0.3,1.1,0.6,1.5,1c0.4,0.4,0.6,0.8,0.8,1.2c0.2,0.4,0.2,0.8,0.2,1.2c0,0.7-0.2,1.3-0.5,1.8
			c-0.3,0.5-0.9,0.9-1.5,1.1v0c0.8,0.2,1.5,0.6,1.9,1.2c0.5,0.6,0.7,1.3,0.7,2.2c0,0.7-0.2,1.4-0.5,1.9s-0.7,1-1.2,1.4
			c-0.5,0.4-1.1,0.6-1.7,0.8c-0.6,0.2-1.3,0.3-1.9,0.3c-0.7,0-1.3-0.1-2-0.2c-0.6-0.2-1.2-0.4-1.7-0.8c-0.5-0.4-0.9-0.8-1.2-1.4
			s-0.5-1.2-0.5-2c0-0.9,0.2-1.6,0.7-2.2c0.5-0.6,1.1-1,2-1.2v0c-0.7-0.2-1.2-0.5-1.5-1.1c-0.3-0.5-0.5-1.1-0.5-1.8
			C-653,8333.9-652.9,8333.4-652.6,8332.9z M-650.6,8341.7c0.1,0.3,0.3,0.5,0.5,0.8s0.5,0.4,0.8,0.5s0.6,0.2,1,0.2
			c0.3,0,0.7-0.1,1-0.2c0.3-0.1,0.5-0.3,0.8-0.5s0.4-0.5,0.5-0.8c0.1-0.3,0.2-0.6,0.2-1c0-0.3-0.1-0.6-0.2-0.9s-0.3-0.5-0.5-0.7
			c-0.2-0.2-0.5-0.4-0.8-0.5c-0.3-0.1-0.6-0.2-0.9-0.2c-0.7,0-1.3,0.2-1.8,0.6c-0.5,0.4-0.7,0.9-0.7,1.6
			C-650.8,8341.1-650.7,8341.4-650.6,8341.7z M-649.8,8336.2c0.4,0.3,0.9,0.5,1.5,0.5c0.6,0,1.1-0.2,1.5-0.5
			c0.4-0.3,0.6-0.8,0.6-1.4c0-0.2,0-0.4-0.1-0.6c-0.1-0.2-0.2-0.4-0.3-0.6c-0.2-0.2-0.4-0.4-0.6-0.5c-0.3-0.1-0.6-0.2-1.1-0.2
			c-0.3,0-0.6,0-0.8,0.1s-0.5,0.2-0.7,0.4c-0.2,0.2-0.4,0.4-0.5,0.6s-0.2,0.5-0.2,0.8C-650.4,8335.4-650.2,8335.9-649.8,8336.2z"/>
	</g>
	<g class="st3">
		<path class="st1" d="M-667.1,8497.5c-0.9,0.5-2.1,0.8-3.5,0.8c-1.1,0-2.1-0.2-2.9-0.6c-0.9-0.4-1.6-0.9-2.2-1.6
			c-0.6-0.7-1.1-1.4-1.4-2.3c-0.3-0.9-0.5-1.9-0.5-2.9c0-1.1,0.2-2.1,0.5-3c0.3-0.9,0.8-1.7,1.4-2.4c0.6-0.7,1.3-1.2,2.2-1.6
			c0.9-0.4,1.9-0.6,2.9-0.6c1.1,0,2.1,0.2,3,0.6c0.9,0.4,1.6,0.9,2.2,1.6c0.6,0.7,1.1,1.5,1.4,2.4c0.3,0.9,0.5,1.9,0.5,3
			c0,1-0.2,2-0.5,2.9c-0.3,0.9-0.8,1.7-1.4,2.4l1.8,1.6l-1.5,1.5L-667.1,8497.5z M-667.6,8494.2c0.3-0.4,0.5-0.8,0.6-1.3
			s0.2-1.2,0.2-1.9c0-0.6-0.1-1.2-0.2-1.8c-0.1-0.6-0.4-1.1-0.7-1.6s-0.7-0.8-1.2-1.1c-0.5-0.3-1.1-0.4-1.8-0.4
			c-0.7,0-1.3,0.1-1.8,0.4c-0.5,0.3-0.9,0.6-1.2,1.1s-0.5,1-0.7,1.6c-0.1,0.6-0.2,1.2-0.2,1.8c0,0.6,0.1,1.2,0.2,1.7
			c0.1,0.6,0.4,1.1,0.7,1.5c0.3,0.5,0.7,0.8,1.2,1.1c0.5,0.3,1.1,0.4,1.8,0.4c0.3,0,0.6,0,0.8,0c0.2,0,0.3-0.1,0.5-0.1l-1.3-1.2
			l1.5-1.6L-667.6,8494.2z"/>
		<path class="st1" d="M-662.5,8494.8v-2.6l6.1-8.2h2.5v8.4h1.9v2.3h-1.9v3.2h-2.7v-3.2H-662.5z M-656.6,8487.6l-3.6,4.9h3.7
			L-656.6,8487.6L-656.6,8487.6z"/>
	</g>
	<g class="st3">
		<path class="st1" d="M-686.2,8510.2c0.2-0.7,0.5-1.3,1-1.8c0.4-0.5,1-0.9,1.6-1.2c0.6-0.3,1.4-0.4,2.2-0.4c0.6,0,1.2,0.1,1.8,0.3
			c0.6,0.2,1.1,0.5,1.5,0.9c0.4,0.4,0.8,0.8,1,1.4c0.3,0.5,0.4,1.2,0.4,1.8c0,0.7-0.1,1.3-0.3,1.8s-0.5,1-0.9,1.3
			c-0.4,0.4-0.8,0.8-1.3,1.1c-0.5,0.3-1,0.6-1.4,1c-0.5,0.3-0.9,0.7-1.4,1c-0.5,0.4-0.9,0.8-1.2,1.3h6.6v2.4h-10.3
			c0-0.8,0.1-1.5,0.4-2.1c0.2-0.6,0.5-1.1,1-1.6c0.4-0.5,0.9-0.9,1.4-1.3s1.1-0.8,1.7-1.2c0.3-0.2,0.6-0.4,1-0.7s0.7-0.5,1-0.7
			c0.3-0.3,0.5-0.6,0.7-0.9s0.3-0.7,0.3-1.1c0-0.7-0.2-1.2-0.6-1.6c-0.4-0.4-0.9-0.6-1.5-0.6c-0.4,0-0.8,0.1-1.1,0.3
			c-0.3,0.2-0.5,0.4-0.7,0.8c-0.2,0.3-0.3,0.7-0.4,1s-0.1,0.8-0.1,1.1h-2.7C-686.5,8511.6-686.4,8510.8-686.2,8510.2z"/>
		<path class="st1" d="M-675.3,8510.5c0.3-0.9,0.6-1.7,1.1-2.2c0.5-0.6,1-1,1.6-1.2s1.3-0.4,2-0.4c0.7,0,1.4,0.1,2,0.4
			s1.2,0.6,1.6,1.2c0.5,0.6,0.8,1.3,1.1,2.2s0.4,2.1,0.4,3.4c0,1.4-0.1,2.6-0.4,3.5c-0.3,0.9-0.6,1.7-1.1,2.2c-0.5,0.6-1,1-1.6,1.2
			c-0.6,0.2-1.3,0.4-2,0.4c-0.7,0-1.3-0.1-2-0.4c-0.6-0.2-1.2-0.6-1.6-1.2c-0.5-0.6-0.8-1.3-1.1-2.2c-0.3-0.9-0.4-2.1-0.4-3.5
			C-675.7,8512.6-675.6,8511.4-675.3,8510.5z M-672.8,8515.4c0,0.6,0.1,1.1,0.2,1.6c0.1,0.5,0.4,1,0.7,1.3c0.3,0.4,0.7,0.6,1.3,0.6
			c0.6,0,1-0.2,1.4-0.6c0.3-0.4,0.5-0.8,0.7-1.3s0.2-1.1,0.2-1.6c0-0.6,0-1,0-1.4c0-0.2,0-0.5,0-0.9c0-0.3,0-0.7-0.1-1.1
			c0-0.4-0.1-0.7-0.2-1.1s-0.2-0.7-0.4-1c-0.2-0.3-0.4-0.5-0.7-0.7c-0.3-0.2-0.6-0.3-1-0.3s-0.7,0.1-1,0.3c-0.3,0.2-0.5,0.4-0.6,0.7
			c-0.2,0.3-0.3,0.6-0.4,1c-0.1,0.4-0.2,0.7-0.2,1.1c0,0.4-0.1,0.7-0.1,1.1c0,0.3,0,0.6,0,0.9
			C-672.9,8514.3-672.8,8514.8-672.8,8515.4z"/>
		<path class="st1" d="M-660,8521v-9.1h-3.5v-2.1c0.5,0,1,0,1.4-0.1s0.9-0.2,1.2-0.5c0.4-0.2,0.7-0.5,0.9-0.9
			c0.3-0.4,0.4-0.8,0.5-1.3h2.3v14H-660z"/>
		<path class="st1" d="M-652.6,8508.9c0.3-0.5,0.6-0.9,1.1-1.2c0.4-0.3,0.9-0.6,1.5-0.7c0.6-0.2,1.1-0.2,1.7-0.2
			c0.9,0,1.6,0.1,2.2,0.4c0.6,0.3,1.1,0.6,1.5,1c0.4,0.4,0.6,0.8,0.8,1.2c0.2,0.4,0.2,0.8,0.2,1.2c0,0.7-0.2,1.3-0.5,1.8
			c-0.3,0.5-0.9,0.9-1.5,1.1v0c0.8,0.2,1.5,0.6,1.9,1.2c0.5,0.6,0.7,1.3,0.7,2.2c0,0.7-0.2,1.4-0.5,1.9s-0.7,1-1.2,1.4
			c-0.5,0.4-1.1,0.6-1.7,0.8c-0.6,0.2-1.3,0.3-1.9,0.3c-0.7,0-1.3-0.1-2-0.2c-0.6-0.2-1.2-0.4-1.7-0.8c-0.5-0.4-0.9-0.8-1.2-1.4
			s-0.5-1.2-0.5-2c0-0.9,0.2-1.6,0.7-2.2c0.5-0.6,1.1-1,2-1.2v0c-0.7-0.2-1.2-0.5-1.5-1.1c-0.3-0.5-0.5-1.1-0.5-1.8
			C-653,8509.9-652.9,8509.4-652.6,8508.9z M-650.6,8517.7c0.1,0.3,0.3,0.5,0.5,0.8s0.5,0.4,0.8,0.5s0.6,0.2,1,0.2
			c0.3,0,0.7-0.1,1-0.2c0.3-0.1,0.5-0.3,0.8-0.5s0.4-0.5,0.5-0.8c0.1-0.3,0.2-0.6,0.2-1c0-0.3-0.1-0.6-0.2-0.9s-0.3-0.5-0.5-0.7
			c-0.2-0.2-0.5-0.4-0.8-0.5c-0.3-0.1-0.6-0.2-0.9-0.2c-0.7,0-1.3,0.2-1.8,0.6c-0.5,0.4-0.7,0.9-0.7,1.6
			C-650.8,8517.1-650.7,8517.4-650.6,8517.7z M-649.8,8512.2c0.4,0.3,0.9,0.5,1.5,0.5c0.6,0,1.1-0.2,1.5-0.5
			c0.4-0.3,0.6-0.8,0.6-1.4c0-0.2,0-0.4-0.1-0.6c-0.1-0.2-0.2-0.4-0.3-0.6c-0.2-0.2-0.4-0.4-0.6-0.5c-0.3-0.1-0.6-0.2-1.1-0.2
			c-0.3,0-0.6,0-0.8,0.1s-0.5,0.2-0.7,0.4c-0.2,0.2-0.4,0.4-0.5,0.6s-0.2,0.5-0.2,0.8C-650.4,8511.4-650.2,8511.9-649.8,8512.2z"/>
	</g>
</g>
</svg>
