<svg xmlns="http://www.w3.org/2000/svg" viewBox="4434.396 -4103.604 100.604 100.604"><defs><style>.a{fill:#009f31;}.b,.c{fill:#fff;}.b{fill-rule:evenodd;}.c,.d{stroke:#707070;}.d,.f{fill:none;}.e{stroke:none;}</style></defs><g transform="translate(3844 -4217)"><circle class="a" cx="50.104" cy="50.104" r="50.104" transform="translate(590.396 113.396)"/><path class="b" d="M23.675,44.231,52.466,7.214S56.025.453,61.325,4.366c5.242,3.913-.316,9.492-.316,9.492L30.319,60.683s-1.409,3.8-5.379,3.8-9.808-8.226-9.808-8.226L1.844,41.067s-3.488-4.538.316-7.277,7.91.633,7.91.633Z" transform="translate(608.75 129.801)"/><g transform="translate(-26 14)"><g class="c" transform="translate(680 161)"><ellipse class="e" cx="18.5" cy="19.5" rx="18.5" ry="19.5"/><ellipse class="f" cx="18.5" cy="19.5" rx="18" ry="19"/></g><line class="d" y1="12" x2="10" transform="translate(698.5 168.5)"/><line class="d" x2="10" transform="translate(698.5 180.5)"/></g></g></svg>