<svg xmlns="http://www.w3.org/2000/svg" viewBox="2420 -6947 144 144">
  <defs>
    <style>
      .cls-1, .cls-3, .cls-6 {
        fill: none;
      }

      .cls-1, .cls-3 {
        stroke: #043275;
      }

      .cls-1 {
        stroke-width: 2px;
      }

      .cls-2 {
        fill: #043275;
      }

      .cls-3 {
        stroke-width: 3px;
      }

      .cls-4 {
        fill: #fff;
        fill-rule: evenodd;
      }

      .cls-5 {
        stroke: none;
      }
    </style>
  </defs>
  <g id="Symbol_11_1" data-name="Symbol 11 – 1" transform="translate(1171 -7733)">
    <g id="Ellipse_3" data-name="Ellipse 3" class="cls-1" transform="translate(1249 786)">
      <circle class="cls-5" cx="72" cy="72" r="72"/>
      <circle class="cls-6" cx="72" cy="72" r="71"/>
    </g>
    <g id="BlockChainProof" transform="translate(321.446 -3.853)">
      <path id="Path_13" data-name="Path 13" class="cls-2" d="M5,0H37.726a5,5,0,0,1,5,5V34.878a5,5,0,0,1-5,5H5a5,5,0,0,1-5-5V5A5,5,0,0,1,5,0Z" transform="translate(948.554 863.853)"/>
      <rect id="Rectangle_61" data-name="Rectangle 61" class="cls-2" width="42.726" height="39.878" rx="5" transform="translate(978.821 810.063)"/>
      <path id="Path_12" data-name="Path 12" class="cls-2" d="M5,0H37.726a5,5,0,0,1,5,5V34.878a5,5,0,0,1-5,5H5a5,5,0,0,1-5-5V5A5,5,0,0,1,5,0Z" transform="translate(1007.554 863.853)"/>
      <line id="Line_15" data-name="Line 15" class="cls-3" y2="36.048" transform="translate(970.094 828.875)"/>
      <line id="Line_18" data-name="Line 18" class="cls-3" y2="36.478" transform="translate(1029.439 828.875)"/>
      <line id="Line_17" data-name="Line 17" class="cls-3" x2="8.76" transform="translate(1021.293 829.884)"/>
      <line id="Line_19" data-name="Line 19" class="cls-3" x2="9.767" transform="translate(969.054 829.884)"/>
      <line id="Line_20" data-name="Line 20" class="cls-3" x2="17.455" transform="translate(991.039 883.411)"/>
      <path id="locked3" class="cls-4" d="M21.985,11.638V8.39c0-4.626-4.153-8.39-9.257-8.39S3.471,3.764,3.471,8.39v3.248A4.187,4.187,0,0,0,0,15.757V27.064a4.187,4.187,0,0,0,4.182,4.182H21.274a4.187,4.187,0,0,0,4.182-4.183V15.756A4.186,4.186,0,0,0,21.985,11.638ZM5.773,8.878c0-3.422,3.112-6.2,6.939-6.2s6.939,2.783,6.939,6.2v2.339H5.773Zm16.851,16.56a2.6,2.6,0,0,1-2.592,2.6H5.391a2.6,2.6,0,0,1-2.592-2.6v-9.7a2.6,2.6,0,0,1,2.592-2.6H20.033a2.6,2.6,0,0,1,2.592,2.6ZM12.776,14.8a3.134,3.134,0,0,0-3.135,3.127v4.691a3.135,3.135,0,0,0,6.269,0V17.923A3.134,3.134,0,0,0,12.776,14.8Zm1.109,7.193a1.157,1.157,0,0,1-2.314,0V18.517a1.157,1.157,0,0,1,2.314,0v3.472Z" transform="translate(986.826 814.23)"/>
      <path id="locked3-2" data-name="locked3" class="cls-4" d="M21.985,11.638V8.39c0-4.626-4.153-8.39-9.257-8.39S3.471,3.764,3.471,8.39v3.248A4.187,4.187,0,0,0,0,15.757V27.064a4.187,4.187,0,0,0,4.182,4.182H21.274a4.187,4.187,0,0,0,4.182-4.183V15.756A4.186,4.186,0,0,0,21.985,11.638ZM5.773,8.878c0-3.422,3.112-6.2,6.939-6.2s6.939,2.783,6.939,6.2v2.339H5.773Zm16.851,16.56a2.6,2.6,0,0,1-2.592,2.6H5.391a2.6,2.6,0,0,1-2.592-2.6v-9.7a2.6,2.6,0,0,1,2.592-2.6H20.033a2.6,2.6,0,0,1,2.592,2.6ZM12.776,14.8a3.134,3.134,0,0,0-3.135,3.127v4.691a3.135,3.135,0,0,0,6.269,0V17.923A3.134,3.134,0,0,0,12.776,14.8Zm1.109,7.193a1.157,1.157,0,0,1-2.314,0V18.517a1.157,1.157,0,0,1,2.314,0v3.472Z" transform="translate(957.554 867.853)"/>
      <path id="locked3-3" data-name="locked3" class="cls-4" d="M21.985,11.638V8.39c0-4.626-4.153-8.39-9.257-8.39S3.471,3.764,3.471,8.39v3.248A4.187,4.187,0,0,0,0,15.757V27.064a4.187,4.187,0,0,0,4.182,4.182H21.274a4.187,4.187,0,0,0,4.182-4.183V15.756A4.186,4.186,0,0,0,21.985,11.638ZM5.773,8.878c0-3.422,3.112-6.2,6.939-6.2s6.939,2.783,6.939,6.2v2.339H5.773Zm16.851,16.56a2.6,2.6,0,0,1-2.592,2.6H5.391a2.6,2.6,0,0,1-2.592-2.6v-9.7a2.6,2.6,0,0,1,2.592-2.6H20.033a2.6,2.6,0,0,1,2.592,2.6ZM12.776,14.8a3.134,3.134,0,0,0-3.135,3.127v4.691a3.135,3.135,0,0,0,6.269,0V17.923A3.134,3.134,0,0,0,12.776,14.8Zm1.109,7.193a1.157,1.157,0,0,1-2.314,0V18.517a1.157,1.157,0,0,1,2.314,0v3.472Z" transform="translate(1015.554 867.853)"/>
    </g>
  </g>
</svg>
