<svg xmlns="http://www.w3.org/2000/svg" viewBox="1678 -6947 144 144">
  <defs>
    <style>
      .cls-1, .cls-4 {
        fill: none;
      }

      .cls-1 {
        stroke: #043275;
        stroke-width: 2px;
      }

      .cls-2 {
        fill: #043275;
      }

      .cls-3 {
        stroke: none;
      }
    </style>
  </defs>
  <g id="Symbol_9_1" data-name="Symbol 9 – 1" transform="translate(1171 -7733)">
    <g id="Ellipse_1" data-name="Ellipse 1" class="cls-1" transform="translate(507 786)">
      <circle class="cls-3" cx="72" cy="72" r="72"/>
      <circle class="cls-4" cx="72" cy="72" r="71"/>
    </g>
    <g id="What_is_it" data-name="What is it" transform="translate(524.011 822.173)">
      <path id="Path_14" data-name="Path 14" class="cls-2" d="M312.43,160.8a4.836,4.836,0,0,0-4.83,4.83v7.245a4.83,4.83,0,0,0,9.66,0h0V165.63A4.836,4.836,0,0,0,312.43,160.8Zm2.415,12.053a2.415,2.415,0,1,1-4.83,0v-7.245a2.415,2.415,0,1,1,4.83,0Z" transform="translate(-241.282 -126.175)"/>
      <path id="Path_15" data-name="Path 15" class="cls-2" d="M96.247,62.031a8.727,8.727,0,0,0,1.423-4.765V45.277c-.065-4.808-.151-9.4-.216-13.153a2.927,2.927,0,0,0-.065-.625,6.266,6.266,0,0,0-.259-.841c-.927-2.2-3.536-4.162-4.787-5a9.4,9.4,0,0,0-1.876-.561V18.345c0-9.638-8.647-17.487-19.3-17.487A21.432,21.432,0,0,0,65,1.763C60.086-.328,47.364-3.67,37.295,11.855c-7.18-.28-21.951-.992-23.719,15.309C6.913,28.587-.16,34.5-.009,45.923A20.1,20.1,0,0,0,18.32,65.977h34.5a3.881,3.881,0,0,1-.776-.108,8.728,8.728,0,0,0,1.294.108H88.958A8.854,8.854,0,0,0,91.8,65.5,12.731,12.731,0,0,0,96.247,62.031ZM88.031,18.345v6.641H54.264V18.345c0-8.3,7.568-15.072,16.883-15.072S88.031,10.043,88.031,18.345Zm7.223,38.92a6.3,6.3,0,0,1-6.3,6.3H53.337a6.3,6.3,0,0,1-6.3-6.3V33.7a6.3,6.3,0,0,1,6.3-6.3H88.958a6.3,6.3,0,0,1,6.3,6.3Z" transform="translate(0 0)"/>
      <path id="Path_16" data-name="Path 16" class="cls-2" d="M420.353,117.2s.259.151.69.431a8.675,8.675,0,0,1,4.787,5,4.187,4.187,0,0,1,.259.841,8.316,8.316,0,0,1,.28,2.2v11.579c.043,4.614.065,9.4,0,13.8a7.31,7.31,0,0,1-1.423,2.933,8.759,8.759,0,0,1-4.442,3.472c-.367.172-.6.259-.6.259,12.161.216,19.838-9.531,19.838-20.484S431.307,117.2,420.353,117.2Z" transform="translate(-329.367 -91.977)"/>
    </g>
  </g>
</svg>
